<?xml version="1.0" standalone="no"?>
<!DOCTYPE svg PUBLIC "-//W3C//DTD SVG 20010904//EN"
 "http://www.w3.org/TR/2001/REC-SVG-20010904/DTD/svg10.dtd">
<svg version="1.0" xmlns="http://www.w3.org/2000/svg"
 width="2145.000000pt" height="2145.000000pt" viewBox="0 0 2145.000000 2145.000000"
 preserveAspectRatio="xMidYMid meet">

<g transform="translate(0.000000,2145.000000) scale(0.100000,-0.100000)"
fill="blue" stroke="none">
<path d="M10360 21444 c-616 -33 -943 -66 -1390 -140 -1881 -310 -3646 -1117
-5103 -2334 -494 -412 -1018 -938 -1417 -1420 -1808 -2187 -2662 -4962 -2405
-7815 188 -2081 985 -4063 2288 -5690 442 -552 990 -1111 1528 -1561 975 -816
2074 -1444 3269 -1869 1753 -623 3687 -777 5531 -439 2454 449 4691 1758 6301
3685 997 1194 1731 2607 2126 4094 183 687 289 1339 344 2115 16 233 16 1061
0 1295 -60 852 -183 1566 -398 2320 -301 1051 -806 2132 -1422 3040 -1507
2224 -3766 3799 -6344 4425 -601 145 -1185 234 -1853 281 -148 10 -929 20
-1055 13z m460 -1235 c31 -12 4 30 283 -449 126 -217 233 -399 239 -405 6 -7
8 19 4 75 -3 47 -9 233 -12 413 -5 304 -5 330 12 348 16 17 32 19 186 19 223
0 213 9 205 -184 -4 -77 -12 -418 -18 -756 -7 -338 -16 -625 -20 -637 -8 -22
-12 -23 -161 -23 -84 0 -171 5 -193 11 -54 15 -102 67 -155 170 -24 46 -112
201 -195 344 -83 143 -171 296 -196 340 l-44 80 -5 -449 -5 -449 -25 -17 c-22
-15 -46 -16 -193 -12 -147 4 -169 6 -177 22 -6 11 -6 158 1 396 5 209 13 554
18 768 7 327 11 391 23 400 19 14 391 9 428 -5z m-810 -35 c8 -9 17 -62 22
-127 4 -62 26 -364 48 -672 22 -308 45 -594 50 -636 5 -41 7 -85 4 -96 -10
-37 -50 -45 -254 -50 l-195 -5 -24 25 c-26 29 -22 -11 -67 647 -13 206 -33
480 -44 609 -11 145 -15 242 -10 257 14 36 41 44 147 45 54 1 127 5 163 9 112
12 147 11 160 -6z m2431 -103 c68 -16 201 -45 294 -66 297 -64 414 -114 528
-223 91 -87 151 -194 188 -332 20 -72 23 -109 23 -245 0 -146 -3 -168 -28
-250 -71 -232 -212 -399 -419 -495 -179 -84 -322 -82 -683 9 -65 16 -180 41
-254 56 -77 15 -142 33 -152 42 -26 24 -23 53 31 281 28 114 100 428 161 697
128 563 117 520 136 540 21 20 33 19 175 -14z m1641 -484 c46 -19 136 -53 200
-76 64 -24 119 -49 122 -57 3 -8 -58 -179 -136 -381 -77 -203 -198 -520 -269
-707 -70 -186 -136 -347 -145 -357 -9 -11 -27 -19 -38 -19 -24 0 -384 136
-403 152 -7 6 -13 22 -13 37 0 14 61 184 136 376 75 193 194 503 265 690 125
328 148 375 185 375 8 0 51 -15 96 -33z m-6160 -378 c133 -28 256 -126 319
-254 32 -65 34 -76 34 -170 0 -96 -2 -104 -37 -176 -49 -98 -119 -168 -217
-217 -71 -35 -80 -37 -171 -37 -91 0 -100 2 -174 38 -98 49 -173 122 -218 214
-31 64 -33 74 -33 174 0 101 1 108 38 181 73 148 225 251 379 257 15 1 51 -4
80 -10z m7305 -167 c26 -16 111 -64 188 -106 77 -43 147 -85 156 -93 18 -15
-3 -124 -204 -1083 -41 -195 -80 -386 -87 -425 -13 -74 -32 -115 -53 -115 -22
0 -330 180 -364 213 -40 38 -43 78 -13 182 24 84 25 123 5 152 -17 24 -245
149 -299 164 -51 14 -80 -2 -167 -91 -70 -73 -81 -80 -116 -80 -26 0 -52 10
-83 31 -25 16 -81 48 -125 71 -86 43 -115 64 -115 83 0 7 201 203 447 436 246
233 509 484 585 557 155 149 162 152 245 104z m-9035 -495 c68 -52 124 -100
126 -108 1 -9 -35 -38 -95 -75 -70 -44 -99 -68 -101 -84 -2 -14 12 -42 40 -79
458 -590 697 -900 706 -917 16 -31 5 -37 -128 -69 -155 -37 -235 -38 -288 -2
-42 27 -143 143 -267 304 -38 51 -76 94 -82 97 -42 18 -61 -40 -70 -206 l-6
-107 -30 -10 c-42 -15 -250 -14 -265 1 -7 7 -12 33 -12 58 0 66 -20 90 -76 90
-78 0 -155 -46 -190 -112 -21 -40 -18 -124 7 -175 42 -88 163 -169 285 -193
54 -11 231 -10 324 2 38 5 60 -47 60 -144 0 -74 -1 -78 -25 -84 -13 -3 -136
-4 -272 -1 -277 5 -357 18 -482 80 -157 77 -271 259 -271 432 0 167 98 320
251 393 96 46 239 69 336 54 40 -7 79 -9 88 -6 9 4 26 25 38 48 19 35 22 57
22 148 0 93 -3 110 -21 135 -34 45 -55 41 -162 -33 -270 -187 -613 -457 -876
-688 -223 -196 -286 -259 -286 -283 0 -17 13 -26 73 -49 148 -55 253 -147 309
-269 19 -43 22 -65 21 -150 -1 -55 -3 -113 -5 -130 -3 -26 1 -31 37 -44 27
-10 81 -14 170 -14 115 0 143 4 250 33 151 42 185 46 221 27 73 -38 103 -97
67 -129 -43 -37 -294 -131 -495 -187 -323 -88 -559 -93 -713 -14 -89 46 -154
139 -155 221 0 86 49 143 153 178 74 25 85 64 41 152 -14 28 -43 65 -64 82
-45 36 -117 63 -146 56 -12 -3 -86 -80 -165 -171 -79 -90 -150 -167 -158 -170
-19 -7 -244 22 -309 41 l-53 15 20 27 c11 15 101 119 200 232 l179 205 -81 3
c-79 3 -328 -28 -393 -49 -40 -13 -72 -47 -129 -142 -51 -85 -88 -113 -137
-103 -43 9 -174 65 -203 88 -38 30 -32 63 34 174 70 117 123 180 189 223 99
63 99 63 534 66 477 4 439 -6 602 153 416 404 953 820 1515 1174 86 54 164 98
173 98 10 0 73 -42 140 -93z m10280 -338 c207 -172 201 -166 195 -213 -2 -23
-37 -238 -77 -479 -39 -242 -69 -441 -66 -445 11 -10 48 32 109 123 58 87 94
133 299 385 116 143 125 145 206 68 31 -30 75 -67 97 -83 99 -71 114 -102 77
-156 -9 -14 -121 -149 -249 -300 -127 -151 -339 -402 -470 -559 -158 -189
-246 -286 -261 -288 -15 -2 -42 16 -94 65 -40 38 -94 84 -120 101 -59 40 -79
78 -79 145 0 78 132 919 156 997 3 8 -8 -1 -23 -20 -87 -109 -387 -469 -532
-637 -16 -18 -37 -33 -47 -33 -17 0 -98 64 -240 189 -24 21 -43 45 -43 54 0
20 11 33 549 671 290 345 450 526 462 526 10 0 78 -50 151 -111z m-5742 -217
c50 -161 56 -167 159 -156 86 8 201 -3 201 -20 0 -6 -44 -45 -97 -86 -119 -92
-133 -107 -133 -140 0 -15 18 -82 40 -150 23 -67 39 -125 36 -127 -10 -10 -50
11 -133 71 -116 83 -128 89 -152 76 -11 -5 -70 -48 -132 -95 -62 -47 -114 -84
-116 -81 -6 6 23 114 57 211 41 115 37 125 -72 198 -110 75 -145 104 -135 113
4 4 71 8 148 8 163 1 157 -3 190 111 30 100 80 218 89 208 5 -4 27 -68 50
-141z m-2434 -438 c66 -92 81 -95 213 -51 99 34 161 46 161 31 0 -3 -28 -49
-61 -102 -76 -120 -89 -143 -89 -162 0 -9 40 -67 89 -130 56 -72 86 -119 80
-125 -8 -8 -145 21 -245 53 -22 7 -39 7 -54 -2 -13 -6 -57 -66 -99 -133 -42
-67 -79 -122 -83 -123 -12 0 -22 84 -22 195 -1 67 -6 119 -14 132 -13 23 -40
34 -147 58 -71 15 -145 43 -145 54 0 3 56 25 124 49 68 24 132 53 142 64 17
18 18 37 16 186 l-2 167 46 -50 c25 -27 66 -78 90 -111z m4887 -17 c2 -172 2
-172 111 -207 38 -13 94 -33 125 -45 l55 -23 -34 -21 c-19 -12 -73 -33 -120
-47 -132 -39 -147 -48 -159 -91 -6 -21 -11 -91 -11 -155 0 -72 -4 -118 -10
-118 -10 0 -72 76 -137 170 -54 78 -71 81 -185 38 -91 -35 -178 -56 -178 -43
0 20 47 91 100 149 99 109 99 128 6 250 -48 62 -95 146 -82 146 3 0 15 -4 28
-10 129 -53 243 -91 261 -86 13 3 45 36 72 73 52 72 146 176 152 170 2 -3 5
-70 6 -150z m-2223 -607 c881 -50 1671 -263 2470 -666 1465 -738 2551 -2002
3059 -3558 299 -915 379 -1872 235 -2806 -210 -1361 -793 -2502 -1770 -3460
-498 -488 -967 -825 -1564 -1123 -534 -267 -1079 -446 -1692 -555 -92 -17
-108 -17 -108 -5 0 8 10 23 23 34 72 62 790 566 845 594 37 18 134 56 217 85
564 195 1189 567 1715 1019 166 143 462 437 594 591 722 842 1175 1839 1330
2931 46 324 51 398 51 799 0 404 -6 498 -51 805 -237 1602 -1137 3031 -2473
3924 -1021 683 -2190 1013 -3406 961 -287 -12 -471 -30 -715 -71 -1350 -224
-2564 -925 -3455 -1998 -589 -709 -1004 -1574 -1185 -2471 -76 -379 -108 -662
-117 -1055 -22 -996 212 -1941 702 -2840 58 -106 105 -203 105 -217 0 -13 -21
-55 -47 -94 -86 -129 -88 -200 -8 -299 56 -68 65 -87 65 -132 0 -37 -40 -113
-59 -113 -4 0 -49 57 -98 128 -332 465 -597 991 -778 1538 -544 1642 -373
3430 470 4914 674 1187 1712 2127 2930 2653 851 367 1805 538 2715 487z m7253
-482 c39 -52 424 -652 472 -737 62 -108 78 -171 73 -295 -3 -83 -8 -111 -31
-160 -58 -125 -152 -213 -275 -259 -87 -32 -225 -30 -313 6 -36 15 -75 27 -86
27 -27 0 -45 -23 -247 -322 -109 -161 -173 -248 -184 -248 -22 1 -282 398
-282 431 0 21 193 306 314 465 20 26 36 58 36 71 0 20 -55 113 -67 113 -2 0
-109 -70 -239 -156 -157 -103 -243 -154 -257 -152 -28 4 -256 340 -256 379 -1
14 7 33 17 41 9 8 195 130 412 270 217 141 499 323 625 406 127 84 238 152
247 152 9 0 28 -15 41 -32z m-11754 -131 c-43 -161 -39 -179 56 -231 86 -47
168 -107 158 -116 -20 -18 -83 -30 -159 -30 -140 0 -148 -9 -184 -190 -12 -63
-26 -121 -30 -129 -10 -19 -50 51 -84 147 -55 154 -64 160 -206 142 -102 -13
-166 -11 -164 5 0 6 48 49 105 96 126 104 125 98 48 281 -29 70 -50 130 -47
133 10 10 79 -23 162 -77 110 -73 116 -72 251 37 l110 89 3 -37 c2 -21 -7 -74
-19 -120z m8455 86 c24 -21 73 -62 107 -91 74 -64 75 -64 191 12 117 75 178
109 178 99 0 -21 -26 -96 -61 -180 -28 -65 -38 -99 -33 -118 4 -15 35 -49 78
-84 39 -33 89 -77 111 -100 l39 -41 -161 0 -161 0 -24 -28 c-12 -15 -43 -78
-68 -140 -24 -62 -48 -112 -52 -112 -7 0 -36 90 -73 222 -23 84 -32 88 -202
88 -79 0 -143 4 -143 9 0 17 69 69 159 122 121 71 123 77 83 223 -33 116 -39
156 -23 156 5 0 30 -17 55 -37z m-3738 -148 c721 -68 1399 -272 2042 -613 115
-62 162 -92 162 -104 0 -17 -54 -18 -1064 -18 -603 0 -1075 4 -1088 9 -13 5
-53 37 -89 72 -155 148 -335 208 -584 196 -249 -13 -550 -96 -810 -223 l-100
-49 -833 -3 c-481 -1 -840 1 -849 6 -21 12 93 81 342 207 647 328 1299 491
2155 539 129 7 559 -4 716 -19z m-381 -600 c258 -66 434 -275 506 -601 18 -84
22 -140 26 -374 5 -253 -6 -489 -23 -533 -13 -35 -48 -38 -262 -21 -180 14
-233 15 -405 4 -108 -7 -200 -10 -203 -7 -4 3 -15 39 -26 79 -29 111 -62 173
-124 238 -67 71 -144 112 -251 136 -111 25 -357 15 -508 -20 -464 -108 -1244
-496 -1970 -979 -603 -402 -1379 -1035 -2062 -1683 -143 -136 -184 -164 -195
-131 -2 6 -4 46 -3 88 3 122 14 137 288 403 1200 1160 2480 2210 3372 2768
409 256 808 456 1100 554 283 94 563 124 740 79z m-7611 -188 c16 -12 15 -18
-23 -97 -47 -96 -50 -121 -18 -151 12 -11 249 -135 527 -275 472 -237 550
-278 539 -287 -45 -37 -350 -247 -358 -247 -6 0 -33 11 -59 24 -26 13 -65 29
-86 36 -35 11 -41 11 -53 -6 -8 -11 -13 -46 -13 -88 -1 -39 -7 -106 -15 -149
-54 -303 -321 -464 -666 -403 -136 25 -145 39 -98 171 36 103 42 192 17 240
-48 91 -204 151 -242 93 -27 -42 -206 -480 -206 -504 0 -13 10 -30 23 -38 12
-8 261 -96 552 -195 557 -191 595 -204 595 -221 0 -17 -259 -264 -291 -278
-20 -8 -41 -9 -67 -3 -20 4 -235 76 -477 160 -242 83 -451 151 -465 149 -28
-3 -29 -7 -85 -196 -40 -135 -39 -146 18 -156 195 -34 1132 -208 1143 -213 27
-10 15 -52 -31 -105 -25 -29 -58 -73 -74 -98 -77 -119 -108 -140 -201 -140
-52 0 -270 38 -447 77 -15 4 -26 -2 -36 -19 -23 -37 -130 -427 -130 -475 0
-102 116 -169 229 -133 86 27 286 161 419 279 45 40 77 61 90 59 24 -4 75 -98
75 -137 0 -39 -28 -83 -101 -158 -238 -245 -387 -342 -596 -389 -101 -22 -215
-23 -268 0 -112 48 -176 181 -160 335 11 112 54 368 85 510 34 152 36 174 17
189 -7 6 -43 16 -81 23 -100 17 -97 23 -156 -276 -82 -415 -128 -772 -150
-1168 -10 -191 -7 -227 25 -227 7 0 46 13 87 29 247 99 447 44 579 -159 18
-28 39 -50 46 -50 22 0 102 58 171 124 74 71 145 164 197 258 51 93 82 118
150 118 37 0 60 -6 76 -19 l23 -18 -38 -94 c-87 -214 -256 -501 -390 -661
-102 -123 -236 -215 -346 -239 -125 -27 -228 9 -269 93 -26 55 -27 93 -1 165
22 64 25 105 10 134 -42 78 -289 66 -320 -16 -13 -33 4 -528 19 -567 6 -15 21
-30 34 -33 12 -4 165 10 338 30 377 43 893 94 898 89 6 -6 -149 -392 -163
-403 -12 -10 -475 -64 -861 -101 -153 -15 -183 -24 -192 -58 -7 -31 12 -183
27 -212 13 -24 39 -25 135 -5 113 23 1073 185 1099 185 50 0 51 -21 8 -142
-21 -62 -45 -138 -52 -168 -23 -100 -39 -111 -183 -134 -49 -8 -100 -22 -114
-31 -23 -15 -25 -22 -20 -68 6 -62 55 -274 68 -299 13 -25 60 -23 112 4 55 28
141 30 180 4 48 -33 74 -104 92 -253 16 -140 -61 -347 -172 -459 -65 -67 -140
-69 -235 -7 -44 29 -112 126 -129 184 -7 21 -20 46 -31 56 -17 16 -20 15 -45
-3 -52 -39 -52 -47 0 -146 65 -121 87 -187 94 -285 17 -240 -101 -417 -288
-431 -63 -4 -75 -2 -133 27 -199 98 -314 373 -261 626 40 189 200 383 395 480
65 32 100 62 100 85 0 9 -26 88 -59 176 -32 87 -63 172 -68 188 -16 51 -26 52
-219 22 -97 -15 -181 -29 -186 -32 -4 -3 -8 -18 -8 -34 0 -30 37 -207 72 -347
11 -45 18 -93 14 -106 -5 -23 -163 -176 -218 -211 -26 -17 -27 -17 -42 7 -9
13 -41 129 -71 258 -197 851 -275 1500 -275 2304 0 569 42 1034 146 1599 19
106 31 193 26 198 -5 5 -55 -13 -113 -42 -168 -81 -271 -89 -356 -25 -99 76
-129 329 -67 570 20 78 80 206 135 286 124 184 370 355 604 419 132 37 164 50
183 78 10 15 40 86 67 157 26 72 78 200 114 285 116 276 498 1021 553 1080 14
15 32 20 71 21 45 1 222 13 268 17 8 1 23 -4 33 -11z m6106 -100 c0 -7 -93
-68 -206 -136 -255 -153 -575 -366 -797 -531 -93 -69 -189 -138 -214 -155
l-46 -30 -684 -3 c-376 -1 -683 1 -683 5 0 17 188 209 324 331 210 190 553
457 661 515 27 15 113 16 838 17 650 0 807 -2 807 -13z m4467 -54 c239 -162
428 -315 673 -544 146 -137 230 -228 230 -250 0 -5 -716 -9 -1594 -9 -1542 0
-1595 1 -1617 19 -22 18 -23 26 -30 207 -9 245 -25 342 -81 516 -17 53 -28
104 -25 112 6 14 120 16 1176 16 l1170 0 98 -67z m-8933 -768 c23 -164 25
-172 44 -180 9 -4 70 -18 136 -32 174 -36 170 -33 100 -77 -32 -20 -85 -46
-117 -58 -62 -22 -107 -65 -107 -101 0 -12 6 -53 14 -92 21 -106 29 -185 18
-185 -6 0 -36 28 -68 62 -153 161 -160 168 -188 168 -15 0 -56 -16 -90 -35
-64 -36 -176 -79 -184 -71 -2 3 20 46 49 97 86 146 89 153 89 171 0 9 -45 67
-100 130 -55 62 -100 116 -100 121 0 14 106 7 175 -13 38 -11 80 -20 92 -20
27 0 80 43 89 73 3 12 31 62 62 110 65 103 62 106 86 -68z m11786 -5 c44 -76
73 -116 89 -122 17 -6 67 0 169 22 80 17 147 28 150 25 9 -8 -48 -86 -114
-156 -79 -85 -81 -102 -20 -202 53 -88 89 -158 83 -163 -7 -7 -117 26 -165 50
-118 59 -160 56 -212 -18 -15 -23 -55 -68 -88 -100 l-61 -59 -7 38 c-4 21 -2
66 5 100 15 84 14 140 -3 174 -12 22 -33 35 -103 60 -48 17 -108 42 -132 55
l-45 23 33 18 c19 9 81 25 138 35 111 20 149 37 162 73 4 12 11 70 15 130 7
116 12 140 30 134 6 -2 40 -54 76 -117z m2688 16 c32 -17 41 -33 81 -143 17
-45 48 -125 71 -177 22 -52 40 -106 40 -120 0 -29 57 20 -654 -562 -637 -520
-613 -501 -628 -486 -16 16 -159 371 -165 410 -6 40 16 68 97 120 96 60 110
78 110 137 0 29 -9 76 -19 106 -30 86 -110 246 -125 252 -8 3 -59 -1 -113 -8
-187 -27 -203 -20 -242 99 -12 38 -38 100 -57 137 -39 79 -42 104 -14 119 11
6 221 26 468 45 246 20 569 46 717 59 328 29 397 31 433 12z m-11520 -219 c8
-6 -38 -48 -146 -136 -87 -70 -309 -256 -494 -413 -185 -158 -345 -291 -356
-297 -30 -16 -872 -15 -872 1 0 72 509 794 593 841 30 16 74 17 647 15 338 -2
621 -7 628 -11z m2469 -4 c56 -26 108 -161 81 -212 -7 -14 -44 -46 -83 -73
-113 -78 -119 -99 -50 -179 56 -65 68 -103 63 -187 -4 -73 -26 -127 -68 -172
l-28 -30 -1274 0 c-700 0 -1279 4 -1286 9 -26 16 409 294 798 510 201 112 587
303 655 324 72 23 61 23 635 24 443 0 530 -2 557 -14z m4535 7 c21 -6 57 -25
80 -43 90 -69 558 -744 558 -805 0 -16 -3715 -17 -3789 -1 -28 6 -65 20 -83
32 -41 27 -78 99 -78 149 0 52 35 139 85 213 l43 63 -29 28 c-16 15 -50 39
-76 53 -71 39 -93 78 -93 165 0 86 15 143 38 149 38 10 3308 7 3344 -3z
m-3643 -335 c124 -24 240 -63 267 -90 41 -41 23 -135 -26 -135 -10 0 -66 16
-125 36 -148 49 -237 64 -386 64 -147 0 -232 -15 -388 -66 -117 -38 -133 -40
-155 -18 -39 39 -31 106 15 130 67 34 258 80 409 98 70 8 307 -3 389 -19z
m-155 -271 c131 -32 257 -115 347 -229 60 -76 85 -91 234 -135 354 -104 728
-296 1005 -516 108 -87 306 -284 394 -394 222 -278 435 -687 530 -1015 206
-714 73 -1613 -331 -2235 -152 -233 -371 -475 -593 -653 -424 -342 -840 -524
-1375 -604 -174 -25 -612 -25 -780 1 -763 117 -1410 523 -1874 1174 -194 273
-325 564 -410 916 -104 426 -114 804 -30 1210 126 608 501 1221 984 1607 231
185 577 378 811 452 43 14 124 39 179 57 111 36 240 97 300 143 22 17 69 58
105 92 148 140 299 178 504 129z m8752 -422 c19 -12 32 -45 44 -112 6 -36 27
-123 47 -194 34 -125 35 -129 17 -146 -18 -17 -469 -133 -1243 -319 -244 -59
-255 -61 -272 -44 -11 11 -30 72 -49 158 -16 77 -37 162 -45 189 -18 60 -19
102 -3 112 24 15 1414 361 1453 363 22 0 45 -3 51 -7z m-13186 -16 c0 -8 -118
-124 -262 -258 -145 -135 -340 -320 -435 -411 -94 -92 -184 -172 -198 -177
-41 -15 -180 -13 -194 4 -29 35 288 811 345 844 13 8 138 11 382 12 303 0 362
-2 362 -14z m3109 5 c10 -7 -14 -23 -90 -61 -57 -29 -162 -94 -234 -145 -250
-178 -464 -292 -980 -521 l-290 -129 -890 -3 c-489 -1 -901 0 -915 4 l-25 6
26 21 c14 12 120 101 235 197 340 286 741 596 809 626 24 11 247 13 1185 13
662 1 1161 -3 1169 -8z m5856 -3 c20 -9 40 -39 75 -113 101 -212 242 -558 272
-668 22 -85 159 -77 -1398 -77 -1006 0 -1390 3 -1408 11 -13 6 -47 39 -74 73
-86 105 -332 337 -457 432 -142 106 -261 181 -430 270 -69 36 -127 70 -131 75
-9 15 3519 12 3551 -3z m-6960 -844 c-37 -54 -89 -138 -116 -187 -53 -93 -237
-459 -296 -587 -29 -62 -36 -71 -43 -55 -4 11 -5 168 -2 348 4 282 7 331 21
348 13 16 490 240 499 234 1 -1 -27 -47 -63 -101z m11369 1 c18 -18 19 -26 46
-241 25 -203 25 -210 -2 -228 -14 -9 -235 -43 -573 -90 -357 -50 -554 -81
-563 -90 -11 -11 -9 -43 13 -197 14 -101 33 -224 41 -273 8 -49 13 -100 9
-113 -6 -26 -10 -27 -155 -48 -181 -27 -204 -29 -217 -13 -10 11 -131 804
-150 980 -7 65 2 94 34 106 16 6 145 27 288 47 143 19 375 53 516 74 140 22
347 51 459 66 113 14 207 28 209 31 9 9 30 3 45 -11z m-16062 -57 c15 -24 46
-81 70 -128 52 -103 66 -110 171 -91 113 21 197 26 197 11 0 -7 -45 -59 -100
-115 -55 -55 -100 -109 -100 -118 0 -10 32 -79 71 -153 87 -165 102 -164 -182
-17 -35 18 -51 22 -70 15 -13 -6 -64 -55 -113 -111 -64 -73 -92 -98 -97 -89
-13 21 -10 108 6 168 22 83 20 126 -10 155 -13 14 -29 25 -36 25 -14 0 -229
123 -229 131 0 6 173 39 208 39 35 0 102 31 114 53 6 11 14 52 19 91 9 78 35
176 47 176 5 0 20 -19 34 -42z m13647 -28 c6 -19 15 -71 21 -115 6 -44 13 -88
16 -98 9 -28 63 -46 170 -57 96 -10 174 -28 174 -39 0 -8 -153 -94 -202 -114
-73 -30 -78 -58 -43 -223 10 -45 15 -94 11 -109 l-7 -26 -50 42 c-27 22 -79
68 -114 100 -44 39 -74 59 -91 59 -14 0 -79 -30 -145 -66 -66 -36 -123 -64
-126 -61 -9 9 27 108 64 177 58 106 56 113 -77 238 l-114 108 75 -4 c41 -2
108 -10 150 -18 116 -22 140 -7 190 121 32 85 67 141 79 128 4 -4 13 -24 19
-43z m-9585 -122 c-2 -21 -543 -812 -566 -827 -12 -7 -334 -11 -1060 -12
l-1043 -1 -12 24 c-17 31 -16 53 2 92 22 46 739 716 788 736 12 5 425 8 957 7
867 -2 935 -3 934 -19z m8004 2 c11 -11 26 -37 32 -57 21 -76 82 -372 105
-508 38 -234 38 -229 16 -256 -18 -23 -25 -24 -128 -24 -1123 0 -2371 7 -2381
14 -8 5 -38 80 -67 167 -75 225 -208 510 -292 622 -50 67 -152 62 1340 62
1338 0 1353 0 1375 -20z m-7921 -1597 c-6 -1501 -23 -3520 -33 -3991 -6 -250
-7 -265 -28 -288 -16 -19 -229 -95 -981 -353 -528 -181 -1226 -422 -1552 -535
-567 -196 -672 -230 -661 -210 3 5 38 67 78 138 71 126 89 142 90 79 0 -28 11
-29 35 -3 17 19 16 20 -9 50 -28 33 -31 45 -17 54 5 3 39 61 76 128 99 180
698 1246 803 1432 50 88 94 172 97 187 7 31 -7 61 -60 127 -54 68 -67 138 -41
225 8 26 63 122 122 214 60 93 213 341 341 553 l233 385 0 59 c0 133 52 251
214 490 233 343 296 527 406 1179 53 318 64 367 88 404 15 24 76 114 136 200
61 87 215 311 344 498 252 366 309 445 319 445 3 0 3 -660 0 -1467z m-792 567
c3 -5 -12 -32 -34 -60 -85 -108 -127 -232 -161 -475 -30 -211 -47 -282 -73
-300 -19 -13 -131 -15 -864 -15 -830 0 -843 0 -863 20 -19 19 -20 33 -20 414
0 345 2 397 16 410 14 14 119 16 1004 16 631 0 991 -4 995 -10z m8891 -4 c17
-13 20 -32 25 -193 3 -98 4 -274 1 -391 -5 -191 -7 -216 -24 -238 l-20 -24
-1203 2 c-1136 3 -1205 4 -1222 21 -16 16 -18 43 -18 295 -1 214 -5 304 -19
395 -14 93 -15 121 -6 132 18 22 2456 23 2486 1z m4024 -41 c10 -12 10 -30 1
-88 -7 -39 -15 -124 -18 -187 -6 -121 -16 -153 -56 -170 -12 -5 -193 -37 -402
-70 -209 -33 -393 -66 -409 -74 -29 -12 -23 -15 185 -84 118 -39 304 -98 413
-131 109 -33 205 -66 214 -74 12 -13 13 -38 2 -191 -8 -104 -18 -180 -25 -186
-9 -7 -813 -159 -850 -160 -30 -1 56 -53 118 -71 40 -12 160 -49 267 -84 107
-34 241 -75 297 -90 57 -16 112 -37 124 -48 20 -19 21 -26 14 -131 -12 -194
-18 -230 -37 -234 -10 -2 -291 91 -625 207 -849 294 -882 306 -894 318 -18 18
9 369 30 394 13 15 87 30 403 83 213 36 399 71 413 78 24 13 7 20 -297 115
-178 56 -356 112 -397 124 -97 29 -114 46 -107 107 3 26 11 110 17 187 6 77
15 148 20 157 5 10 26 22 47 28 20 6 285 56 587 111 545 99 665 122 820 158
100 24 129 25 145 6z m-13220 -985 c33 -21 1 -202 -59 -335 -16 -35 -55 -108
-86 -160 -31 -53 -70 -126 -86 -163 -46 -103 -84 -156 -131 -182 -49 -28 9
-26 -665 -22 l-452 2 -26 23 c-31 26 -42 68 -110 402 -55 277 -72 409 -55 430
11 13 116 15 834 15 487 0 827 -4 836 -10z m9175 -13 c14 -22 14 -35 0 -138
-20 -139 -55 -325 -101 -524 -26 -112 -40 -154 -55 -167 -20 -17 -90 -18
-1165 -18 -1141 0 -1144 0 -1165 21 -20 20 -20 28 -17 415 l3 396 24 19 c23
18 57 19 1242 19 l1219 0 15 -23z m-12370 -187 c3 -5 46 -46 95 -90 109 -97
133 -102 219 -44 55 37 148 84 167 84 20 0 0 -64 -50 -163 -26 -51 -46 -103
-46 -115 0 -16 20 -42 62 -80 35 -32 88 -81 118 -109 l55 -53 -65 0 c-36 0
-90 7 -120 15 -124 33 -185 11 -219 -80 -12 -30 -21 -59 -21 -63 0 -15 -60
-102 -69 -102 -13 0 -26 53 -41 164 -16 113 -30 130 -120 139 -83 9 -240 39
-240 47 0 7 120 80 185 113 28 14 59 35 69 46 18 20 19 27 8 92 -21 123 -13
242 13 199z m13917 5 c3 -3 -1 -47 -9 -98 -28 -182 -28 -181 -2 -210 13 -14
65 -47 114 -71 50 -25 105 -58 124 -74 l35 -29 -110 -12 c-195 -21 -218 -37
-235 -162 -5 -41 -17 -96 -25 -122 -15 -46 -17 -47 -34 -32 -10 9 -44 66 -76
127 -38 72 -66 114 -81 121 -18 8 -46 7 -112 -6 -98 -19 -191 -22 -191 -7 0 6
45 58 101 116 115 119 114 115 53 215 -43 71 -88 169 -81 176 11 10 82 -20
153 -63 139 -85 154 -83 272 46 80 86 92 96 104 85z m-9506 -175 c59 -177 173
-423 268 -580 59 -96 166 -247 252 -353 l46 -58 -217 1 c-181 1 -220 -1 -241
-14 -29 -20 -38 -53 -31 -110 9 -63 -11 -86 -73 -86 -37 0 -52 4 -58 18 -14
26 -25 1355 -11 1350 5 -2 35 -78 65 -168z m5374 -1181 c-11 -20 -63 -26 -89
-10 -7 5 -20 44 -27 87 -8 43 -21 85 -29 93 -13 13 -49 17 -196 19 -140 3
-181 6 -185 17 -3 7 23 49 57 92 152 191 355 541 423 733 15 41 32 81 39 89
16 19 23 -1090 7 -1120z m5195 583 c127 -80 412 -260 635 -400 223 -140 417
-265 432 -279 14 -14 29 -36 32 -49 4 -14 -11 -85 -38 -176 -24 -84 -49 -176
-56 -205 -19 -83 -26 -86 -213 -95 -414 -19 -1377 -62 -1417 -62 l-45 -1 1 40
c0 22 22 121 48 220 59 225 54 219 201 229 59 4 122 13 141 21 40 17 66 63 99
182 13 49 29 104 36 124 15 48 -7 97 -61 130 -202 123 -200 118 -137 343 32
112 50 140 85 131 15 -4 131 -72 257 -153z m-12267 -109 c4 -76 -32 -214 -87
-328 -49 -103 -193 -354 -238 -413 -37 -49 -90 -72 -168 -72 -81 0 -122 17
-161 64 -51 61 -314 700 -314 761 0 13 8 29 18 34 11 7 178 10 482 8 l465 -2
3 -52z m9423 47 c10 -6 19 -21 19 -35 0 -28 -100 -297 -181 -488 -84 -195
-134 -292 -165 -316 l-27 -21 -940 0 c-861 0 -942 1 -959 17 -17 15 -18 41
-18 415 0 385 1 399 20 418 20 20 33 20 1126 20 743 0 1112 -3 1125 -10z
m-2942 -460 c1 -48 -13 -60 -71 -60 -62 0 -62 12 5 87 51 57 52 58 58 33 4
-14 7 -41 8 -60z m-4060 -23 l23 -26 -40 -12 c-54 -16 -88 -6 -107 32 -15 28
-14 75 2 102 5 8 80 -52 122 -96z m396 -322 c369 -248 780 -400 1275 -470 122
-17 299 -19 455 -5 61 6 166 14 235 19 103 8 159 20 320 65 251 70 340 103
530 197 181 89 243 126 440 267 124 88 145 100 151 85 4 -10 8 -129 8 -264 1
-186 -2 -249 -11 -257 -9 -7 -29 -3 -69 13 -171 73 -336 40 -499 -99 l-65 -56
-1217 0 -1218 0 -67 62 c-97 87 -174 121 -288 126 -62 3 -109 -1 -153 -12 -49
-13 -67 -14 -78 -5 -11 9 -14 59 -14 266 l0 254 63 -45 c34 -26 125 -89 202
-141z m-639 156 c94 -43 149 -156 125 -259 -14 -54 -65 -123 -110 -146 -137
-71 -294 35 -294 199 0 158 146 266 279 206z m4579 8 c53 -15 129 -91 144
-144 29 -104 -6 -203 -92 -258 -82 -53 -173 -43 -243 27 -109 109 -77 303 61
367 46 22 74 23 130 8z m2213 -401 c21 -21 14 -38 -64 -164 -131 -215 -437
-634 -488 -669 -17 -13 -112 -15 -625 -15 -548 0 -606 2 -623 17 -17 15 -18
41 -18 414 l0 398 22 15 c20 14 122 16 903 16 672 0 884 -3 893 -12z m-6103
-163 c168 -44 270 -182 270 -365 0 -74 -4 -93 -32 -151 -40 -86 -88 -138 -165
-180 -60 -33 -68 -34 -168 -34 -93 0 -112 3 -162 27 -79 37 -142 98 -181 177
-30 61 -32 73 -32 166 0 87 3 107 26 156 35 73 85 128 151 164 97 53 192 66
293 40z m3206 1 c107 -25 208 -107 252 -204 28 -64 35 -199 14 -273 -49 -166
-199 -266 -385 -257 -134 6 -254 84 -312 203 -22 44 -25 63 -25 165 0 105 2
120 27 170 79 161 250 239 429 196z m-3662 -22 c39 -8 39 -18 2 -55 l-29 -29
-366 0 c-351 0 -366 1 -376 19 -7 13 -7 28 0 45 l10 26 364 0 c200 0 378 -3
395 -6z m4656 -39 l0 -40 -340 -3 c-187 -1 -350 0 -362 3 -18 4 -63 60 -63 79
0 3 172 5 383 4 l382 -3 0 -40z m-8604 -230 c-18 -206 -17 -209 80 -240 64
-20 199 -84 199 -94 0 -10 -171 -51 -214 -51 -20 0 -50 -7 -66 -15 -46 -24
-61 -65 -67 -179 -5 -95 -14 -136 -31 -136 -4 0 -29 39 -56 88 -71 126 -74
130 -100 148 -23 14 -32 14 -128 -10 -57 -13 -124 -27 -150 -31 l-47 -6 11 33
c6 18 39 60 72 93 73 72 96 103 96 130 0 22 -6 35 -88 184 -29 52 -52 95 -52
97 0 4 182 -63 230 -85 73 -33 96 -29 149 31 85 96 164 178 168 174 3 -2 0
-61 -6 -131z m11654 -4 c75 -89 111 -113 150 -101 11 3 69 29 128 58 59 29
112 52 117 52 14 0 -35 -106 -76 -162 -72 -101 -69 -123 36 -233 43 -45 85
-96 95 -114 l17 -34 -38 6 c-22 3 -84 13 -139 23 -55 9 -111 15 -125 11 -14
-3 -34 -21 -44 -39 -71 -127 -121 -208 -128 -208 -12 0 -28 70 -39 174 -5 55
-14 108 -20 118 -15 28 -55 44 -158 62 -51 9 -108 24 -125 33 l-31 16 130 63
c72 35 136 73 144 84 12 17 11 34 -2 118 -9 53 -19 121 -23 151 l-7 55 31 -23
c17 -12 65 -62 107 -110z m-4830 89 c121 0 227 -4 235 -10 12 -7 14 -30 11
-118 -2 -89 1 -119 18 -167 15 -43 18 -62 10 -72 -16 -18 -687 -19 -711 0 -13
9 -17 42 -23 157 -6 140 -6 146 16 174 32 40 54 47 144 41 44 -3 179 -5 300
-5z m-2970 -14 c17 -12 17 -18 6 -76 -14 -69 -9 -129 19 -220 10 -32 15 -61
12 -64 -3 -3 -161 -6 -350 -6 -307 0 -347 2 -364 17 -16 14 -18 34 -18 174 0
152 1 158 22 173 19 14 69 16 338 16 250 0 320 -3 335 -14z m2413 -4 c16 -16
18 -36 16 -175 -2 -106 -6 -163 -14 -172 -14 -17 -72 -20 -101 -5 -17 10 -19
22 -19 146 0 132 -1 135 -26 161 l-26 26 -214 -6 c-283 -9 -304 -18 -304 -129
0 -74 8 -97 37 -104 35 -9 47 8 44 64 -4 86 44 102 264 87 127 -8 132 -13 142
-132 5 -73 4 -82 -16 -102 -20 -20 -29 -21 -265 -21 -209 0 -247 2 -260 16
-13 12 -16 41 -16 150 0 139 -8 174 -38 174 -37 0 -42 -20 -42 -166 0 -116 -3
-145 -16 -158 -13 -14 -59 -16 -350 -16 -381 0 -359 -6 -330 86 25 79 30 142
16 207 -9 45 -9 61 0 72 11 13 119 15 756 15 702 0 745 -1 762 -18z m2345 6
c23 -18 37 -271 17 -318 -23 -56 -33 -57 -382 -52 -197 3 -318 8 -318 14 0 6
6 36 14 67 23 92 28 155 17 216 -8 42 -8 62 0 72 16 18 627 19 652 1z m4574
-49 c82 -33 182 -80 223 -104 149 -87 238 -92 680 -40 333 40 543 54 554 37 4
-6 -27 -87 -68 -179 -41 -92 -82 -188 -92 -213 -9 -25 -22 -51 -29 -58 -8 -9
-102 -21 -286 -38 -151 -13 -278 -25 -283 -27 -4 -1 69 -99 163 -217 111 -139
171 -222 171 -237 0 -13 -11 -45 -24 -71 -13 -26 -42 -92 -65 -147 -46 -111
-75 -156 -89 -140 -17 18 -478 609 -534 685 -31 41 -69 87 -85 103 -30 28
-136 78 -413 194 -85 36 -163 72 -172 81 -24 21 -23 44 8 103 14 28 50 108 80
178 52 121 72 151 101 151 7 0 79 -27 160 -61z m-9182 -442 c28 -14 66 -39 85
-56 l35 -30 -467 -1 c-411 0 -468 2 -482 16 -18 18 -21 75 -5 91 8 8 127 10
398 9 l386 -3 50 -26z m3211 5 c29 -13 64 -37 80 -53 l28 -29 -1413 0 c-926 0
-1410 3 -1406 10 13 22 103 75 145 87 35 9 330 11 1280 10 l1235 -2 51 -23z
m1397 22 c13 -4 17 -16 17 -48 0 -23 -5 -47 -12 -54 -14 -14 -903 -18 -912 -4
-7 12 88 73 144 92 42 14 99 17 397 18 191 0 356 -2 366 -4z m-2 -181 c22 -22
22 -22 20 -460 -2 -282 -6 -442 -13 -450 -5 -7 -60 -40 -121 -74 -62 -35 -278
-159 -481 -276 -273 -158 -372 -210 -378 -201 -4 7 -8 54 -8 104 0 56 -4 94
-12 102 -17 17 -170 16 -213 -2 -18 -8 -38 -23 -44 -34 -23 -43 -7 -205 21
-223 7 -5 45 -9 83 -9 l70 -1 -29 -23 c-16 -13 -90 -59 -165 -102 -75 -43
-157 -93 -184 -110 -97 -66 -146 -79 -308 -79 -179 0 -183 -2 -174 -89 10 -93
-7 -111 -200 -219 -88 -49 -248 -140 -355 -203 -118 -69 -205 -114 -222 -114
-17 0 -186 92 -460 251 -238 138 -438 256 -445 262 -10 10 -5 22 22 56 43 55
46 74 8 64 -16 -5 -68 -8 -118 -7 -111 1 -158 18 -321 115 -65 39 -180 105
-254 146 -149 83 -170 98 -170 122 0 9 37 58 81 109 45 51 80 94 78 96 -2 2
-65 8 -139 14 -141 12 -204 6 -259 -23 -48 -24 -108 -19 -160 14 -25 15 -91
52 -146 81 -133 70 -235 136 -235 153 0 16 104 119 223 222 47 41 77 74 75 84
-3 14 -29 16 -203 19 -179 2 -201 1 -212 -15 -9 -11 -13 -55 -13 -129 l0 -113
-30 11 c-17 5 -34 18 -39 27 -10 19 -25 848 -15 885 3 15 17 29 32 35 18 6
986 9 2709 8 l2682 -2 22 -22z m1137 -3 c6 0 12 -8 12 -18 0 -24 -272 -291
-440 -433 -250 -211 -546 -423 -584 -417 -44 6 -46 29 -43 453 l2 399 22 12
c16 8 167 10 520 7 274 -2 504 -4 511 -3z m3104 -422 c48 -10 98 -41 98 -60 0
-6 -36 -93 -81 -194 -89 -201 -77 -189 -180 -198 -127 -10 -242 -99 -275 -212
-20 -71 -11 -127 22 -132 50 -7 131 39 262 148 155 128 230 181 317 221 154
73 339 38 476 -88 159 -148 188 -402 74 -659 -95 -216 -319 -403 -532 -444
-72 -14 -187 -10 -205 8 -19 19 -13 73 20 174 16 51 35 112 41 135 16 58 60
93 117 93 57 0 110 27 158 81 78 86 97 183 44 222 -26 19 -29 19 -70 3 -26
-10 -103 -69 -198 -152 -256 -226 -314 -257 -475 -258 -166 -1 -293 58 -387
181 -65 87 -90 157 -96 274 -5 118 18 220 82 355 96 203 214 333 387 428 161
87 258 106 401 74z m-9328 -326 l40 -18 -100 -79 c-54 -43 -105 -83 -113 -89
-25 -19 -41 21 -40 99 2 102 5 105 97 105 52 0 90 -6 116 -18z m-443 -114 c15
-27 3 -181 -16 -219 -18 -34 -58 -49 -255 -95 -496 -114 -2367 -586 -2400
-605 -30 -17 65 -9 130 11 36 11 112 29 170 41 58 11 195 40 305 64 110 25
342 74 515 110 271 57 866 185 1372 296 81 17 154 29 162 26 14 -6 16 -35 16
-215 0 -189 -2 -210 -18 -225 -15 -14 -99 -23 -473 -52 -250 -19 -587 -46
-749 -60 -162 -13 -376 -29 -475 -35 -99 -6 -279 -19 -400 -30 -121 -11 -290
-22 -375 -25 -85 -3 -182 -10 -215 -16 -86 -14 -405 -24 -405 -13 0 23 336
141 2115 744 451 152 847 287 880 298 79 27 102 27 116 0z m7129 -363 c49
-128 63 -156 81 -166 10 -5 82 -9 161 -9 l143 -1 -60 -55 c-33 -31 -79 -69
-102 -85 -64 -45 -64 -60 1 -221 32 -77 55 -142 52 -145 -10 -11 -78 20 -153
71 -126 85 -114 87 -267 -40 l-101 -84 -3 38 c-2 20 9 87 24 149 30 122 28
148 -18 176 -160 100 -226 146 -215 150 6 2 62 10 122 17 177 19 174 18 194
50 10 16 28 83 40 147 13 65 26 122 29 127 9 16 41 -37 72 -119z m-6041 -101
c12 -11 -82 -84 -109 -84 -24 0 -112 60 -107 74 5 15 88 24 157 18 30 -2 57
-6 59 -8z m-906 -78 c194 -105 587 -262 842 -336 139 -41 209 -76 376 -188 74
-49 248 -161 387 -248 230 -143 285 -185 268 -201 -8 -8 -366 43 -546 78 -350
68 -730 179 -1055 309 -203 82 -376 161 -391 181 -13 16 -29 404 -18 432 10
28 49 20 137 -27z m-193 -381 c17 -20 7 -196 -16 -280 -22 -85 -76 -191 -127
-253 -182 -220 -403 -178 -531 101 -23 51 -49 108 -58 127 l-15 34 -18 -49
c-54 -149 -81 -207 -127 -277 -90 -139 -168 -192 -283 -192 -143 0 -234 84
-316 293 l-38 96 -16 -40 c-66 -159 -105 -206 -184 -225 -109 -26 -223 45
-302 188 -19 34 -36 62 -39 61 -3 0 -32 -36 -65 -81 -76 -102 -130 -141 -205
-146 -48 -3 -61 0 -98 25 -24 16 -63 55 -88 86 -49 63 -77 72 -110 36 -26 -29
-68 -49 -101 -49 -16 0 -60 15 -98 33 -85 41 -161 66 -325 107 -133 34 -165
48 -174 78 -9 26 9 69 31 76 38 11 1314 112 2043 161 387 26 593 44 835 70
116 13 222 22 391 34 12 0 27 -6 34 -14z m5178 -524 c11 -6 13 -40 10 -154 -4
-169 0 -178 85 -197 29 -7 90 -23 137 -37 l84 -25 -39 -24 c-44 -27 -98 -48
-163 -64 -78 -20 -82 -29 -82 -197 0 -82 -4 -154 -8 -160 -9 -14 -68 42 -117
112 -48 67 -88 105 -111 105 -12 0 -53 -13 -90 -29 -66 -28 -193 -66 -199 -59
-2 2 35 61 81 132 46 71 84 136 84 146 0 19 -11 34 -113 167 l-69 88 38 3 c21
2 74 -8 123 -23 137 -43 170 -35 213 49 26 51 109 176 117 176 3 0 12 -4 19
-9z m-4857 -115 c41 -59 82 -112 90 -117 26 -16 63 -9 197 35 73 25 132 43
132 40 0 -12 -61 -98 -122 -172 -45 -56 -68 -92 -68 -109 0 -16 23 -61 55
-108 50 -75 91 -153 83 -160 -2 -2 -48 15 -103 36 -169 66 -184 64 -249 -33
-19 -29 -60 -81 -89 -115 l-54 -61 -7 82 c-4 45 -4 107 0 139 12 105 4 114
-188 183 -60 21 -108 41 -108 44 0 7 127 54 207 75 40 11 71 27 90 47 l28 29
-3 130 c-5 188 0 189 109 35z m2639 -382 c0 -15 -19 -81 -41 -146 -48 -139
-47 -149 27 -201 72 -49 164 -128 164 -139 0 -6 -50 -8 -134 -6 -175 4 -161
16 -226 -189 -18 -56 -38 -107 -45 -113 -18 -15 -47 40 -70 131 -36 137 -64
164 -162 152 -27 -3 -82 0 -122 7 -84 14 -85 11 32 102 148 115 146 108 92
263 -19 55 -35 113 -35 128 l0 29 38 -23 c20 -12 71 -47 112 -76 103 -73 124
-73 221 8 72 61 127 99 142 99 4 0 7 -12 7 -26z"/>
<path d="M12671 19631 c-7 -5 -28 -75 -46 -157 -18 -82 -56 -244 -84 -360 -70
-289 -68 -316 24 -330 178 -26 334 105 391 328 23 87 15 251 -15 330 -37 96
-125 170 -226 192 -17 3 -36 2 -44 -3z"/>
<path d="M15020 18503 c-12 -15 -69 -79 -126 -141 -77 -83 -104 -119 -102
-135 2 -16 23 -32 78 -59 80 -40 105 -45 113 -25 2 6 24 90 47 185 37 154 41
176 28 189 -14 13 -18 11 -38 -14z"/>
<path d="M18100 15849 c-14 -11 -43 -29 -65 -40 -57 -30 -95 -69 -95 -97 0
-25 109 -190 153 -230 57 -53 177 -30 210 41 9 19 17 51 17 70 0 43 -65 176
-115 235 -41 47 -66 52 -105 21z"/>
<path d="M2883 14838 c-12 -13 -35 -51 -53 -84 -42 -81 -36 -99 38 -120 189
-53 268 -123 294 -263 9 -49 8 -75 -6 -148 -16 -84 -16 -88 1 -101 37 -27 118
20 153 87 10 21 27 80 36 131 14 77 15 105 5 173 -13 97 -38 140 -108 186 -65
44 -300 161 -322 161 -10 0 -27 -10 -38 -22z"/>
<path d="M1805 13472 c-80 -28 -137 -66 -202 -136 -69 -73 -99 -139 -116 -254
-18 -116 6 -130 154 -92 136 35 163 61 207 200 35 107 73 272 68 286 -7 19
-50 17 -111 -4z"/>
<path d="M2421 8031 c-11 -11 -28 -46 -37 -78 -16 -54 -16 -64 -1 -142 9 -47
21 -89 26 -94 13 -13 71 -11 83 1 30 30 24 224 -10 291 -21 43 -35 48 -61 22z"/>
<path d="M18795 14184 c-44 -7 -125 -16 -180 -20 -55 -4 -103 -12 -107 -18
-15 -23 -7 -68 24 -131 18 -35 38 -67 44 -69 27 -11 265 179 295 235 5 11 8
18 7 18 -2 -1 -39 -8 -83 -15z"/>
<path d="M10740 13627 l-25 -13 -8 -374 c-10 -474 -7 -548 19 -567 10 -8 34
-13 52 -11 l33 3 0 478 c0 263 -3 482 -6 487 -8 14 -35 12 -65 -3z"/>
<path d="M10898 13634 c-5 -4 -8 -222 -8 -485 0 -471 0 -478 20 -489 23 -12
56 -5 83 18 16 14 17 49 17 467 0 429 -1 453 -19 469 -21 19 -82 32 -93 20z"/>
<path d="M10551 13535 l-31 -27 0 -363 0 -363 31 -27 c66 -55 64 -65 64 390 0
455 2 445 -64 390z"/>
<path d="M11090 13140 c0 -231 2 -420 5 -420 4 0 19 7 35 15 61 31 60 26 60
413 l0 354 -29 29 c-16 16 -39 29 -50 29 -21 0 -21 -1 -21 -420z"/>
<path d="M10402 13322 c-57 -132 -53 -290 8 -364 19 -23 19 -23 20 195 0 119
-2 217 -4 217 -2 0 -13 -22 -24 -48z"/>
<path d="M11286 13320 c-18 -119 -16 -370 4 -370 15 0 51 103 57 163 6 64 -13
161 -41 215 l-14 27 -6 -35z"/>
<path d="M10070 13191 c-454 -161 -740 -337 -1040 -640 -389 -393 -634 -884
-722 -1446 -31 -200 -31 -540 0 -740 51 -324 147 -603 304 -878 414 -722 1147
-1209 1953 -1297 158 -17 492 -15 620 4 152 23 416 89 565 143 612 219 1098
661 1409 1280 124 248 202 491 248 768 25 155 25 512 -1 680 -24 156 -83 391
-136 535 -259 706 -715 1196 -1389 1495 -115 51 -353 135 -382 135 -21 0 -25
-14 -34 -119 -6 -84 -42 -201 -81 -264 -36 -58 -118 -142 -185 -187 -31 -22
-59 -46 -63 -55 -10 -27 -7 -74 8 -109 15 -37 33 -45 151 -71 292 -64 639
-275 856 -521 366 -413 521 -996 404 -1521 -74 -331 -245 -644 -479 -879 -228
-227 -474 -362 -821 -449 -604 -152 -1221 29 -1660 486 -129 135 -219 262
-300 424 -119 239 -173 453 -182 720 -16 501 161 941 522 1300 241 239 545
400 878 465 75 15 97 36 97 94 0 63 -5 70 -74 120 -33 24 -82 66 -107 93 -99
105 -136 195 -148 352 -6 84 -11 107 -26 117 -27 20 -35 18 -185 -35z m-443
-616 c28 -32 29 -70 5 -110 -11 -16 -98 -113 -195 -214 -194 -202 -197 -207
-153 -272 35 -51 40 -80 22 -123 -21 -52 -51 -62 -132 -47 -83 15 -98 7 -161
-91 -162 -250 -269 -597 -280 -908 -8 -233 23 -418 117 -682 54 -151 70 -168
160 -168 82 0 105 -19 105 -84 0 -32 -8 -51 -32 -83 -18 -22 -33 -48 -33 -56
0 -8 48 -89 108 -178 l107 -163 0 -64 c0 -60 -2 -65 -37 -97 -48 -44 -117 -57
-156 -28 -15 11 -79 108 -142 217 -119 204 -134 221 -179 197 -12 -7 -42 -9
-78 -4 -71 8 -113 43 -113 93 0 25 11 43 55 86 74 73 76 93 32 241 -85 281
-107 407 -114 658 -6 225 9 364 61 567 50 195 126 376 232 555 63 106 65 130
22 179 -46 52 -58 76 -58 119 0 27 8 44 29 66 35 35 73 37 149 10 29 -10 64
-16 77 -13 15 2 87 72 191 184 174 187 214 223 261 238 47 15 105 4 130 -25z
m2566 21 c30 -13 259 -239 374 -370 56 -64 46 -62 153 -31 64 18 99 13 140
-22 44 -37 41 -79 -10 -138 -69 -79 -67 -98 31 -273 188 -339 283 -732 265
-1100 -10 -207 -45 -391 -121 -633 -44 -138 -41 -155 31 -225 46 -44 54 -57
54 -88 0 -25 -8 -45 -28 -67 -26 -29 -34 -32 -78 -29 -112 6 -123 5 -149 -20
-14 -13 -45 -60 -68 -104 -79 -148 -158 -267 -191 -287 -59 -36 -141 -17 -171
41 -8 16 -15 55 -15 86 0 64 18 99 145 283 36 51 65 104 65 116 0 12 -13 39
-30 60 -23 29 -30 48 -30 81 0 64 24 84 101 84 33 0 69 5 80 10 39 21 116 220
166 427 21 92 26 139 30 313 4 177 2 222 -16 327 -35 208 -133 465 -258 674
-60 101 -82 115 -159 99 -65 -14 -96 -8 -124 22 -31 33 -27 91 11 150 27 41
30 53 21 73 -6 13 -84 101 -174 195 -175 185 -208 228 -208 276 0 70 81 105
163 70z m-186 -3378 c31 -35 46 -69 35 -80 -6 -6 -17 3 -32 26 -25 42 -30 43
-55 16 -23 -26 -41 -25 -56 2 -10 18 -8 24 12 39 33 25 71 24 96 -3z m123 -67
c0 -16 -7 -34 -15 -41 -12 -10 -15 -45 -15 -196 0 -101 -3 -184 -6 -184 -3 0
-14 5 -25 10 -16 9 -19 22 -19 90 0 44 -3 80 -7 80 -17 0 -98 -61 -110 -82 -7
-13 -12 -38 -13 -56 0 -27 6 -36 35 -53 19 -12 35 -27 35 -35 0 -26 -39 -14
-80 24 -33 32 -40 46 -40 77 0 54 31 97 104 143 59 37 64 43 68 81 2 23 2 41
-1 41 -2 0 -38 -22 -80 -49 -42 -26 -91 -56 -110 -66 l-34 -17 5 -164 c4 -109
2 -164 -5 -164 -21 0 -47 34 -47 61 l0 28 -36 -24 c-20 -14 -47 -25 -59 -25
-26 0 -82 36 -102 66 -12 19 -10 23 24 45 34 22 64 71 51 84 -3 3 -31 -4 -62
-16 l-57 -22 3 -154 c3 -158 1 -167 -37 -139 -14 10 -20 30 -23 79 l-4 65 -44
-15 c-42 -14 -56 -34 -34 -48 6 -3 10 -19 10 -35 0 -55 -67 -77 -126 -41 -34
21 -84 80 -84 99 0 20 28 13 35 -8 8 -27 53 -60 80 -60 12 0 30 9 40 20 17 18
16 20 -16 49 -18 17 -30 33 -27 36 3 3 41 16 84 28 l79 23 3 38 c3 36 2 38
-20 32 -93 -26 -208 -55 -233 -58 -25 -2 -31 1 -33 19 -3 17 3 24 25 29 102
22 225 58 310 90 185 69 451 217 563 313 44 38 50 38 50 2z m-2359 -135 c141
-95 351 -186 543 -236 181 -46 327 -64 544 -64 l192 0 0 -23 c0 -16 -6 -23
-20 -23 -18 0 -20 -8 -22 -147 l-3 -148 -22 23 c-13 12 -23 33 -23 46 0 22 -3
23 -46 18 -28 -3 -55 0 -70 9 -28 15 -54 57 -54 88 0 46 82 66 141 35 l30 -15
-3 43 -3 43 -107 3 -108 3 0 -139 c0 -76 -3 -142 -7 -145 -3 -4 -17 3 -30 15
-17 16 -23 32 -23 63 0 41 -1 43 -37 49 -62 10 -73 8 -73 -14 0 -39 -31 -36
-72 8 -45 48 -49 72 -13 72 24 0 25 3 25 60 0 41 -4 60 -12 60 -7 0 -30 3 -50
6 l-36 6 5 -156 c4 -108 3 -156 -5 -156 -20 0 -52 53 -52 86 0 33 -1 34 -40
34 -54 0 -86 23 -121 85 -27 48 -33 53 -84 65 -44 11 -57 11 -70 0 -27 -23
-18 -73 26 -139 39 -57 46 -83 19 -66 -26 16 -90 130 -101 180 -10 47 -10 57
5 79 21 32 41 32 128 1 80 -29 104 -31 112 -9 9 25 -11 52 -45 59 -17 4 -80
26 -140 50 l-109 43 -2 -181 -3 -181 -20 29 c-13 21 -21 52 -23 102 -4 73 -4
73 -43 95 -21 12 -39 24 -39 27 0 3 -9 17 -19 31 l-19 24 -17 -35 -17 -35 42
-83 c23 -46 39 -85 36 -88 -16 -17 -57 55 -112 198 -44 113 -46 194 -4 144 21
-25 30 -17 30 29 0 40 -4 47 -35 66 -28 17 -35 28 -35 52 0 30 1 30 23 14 12
-8 51 -35 88 -60z m808 -144 c39 -31 105 -122 96 -131 -4 -3 -27 18 -53 47
-36 39 -55 52 -80 54 -25 2 -38 11 -55 37 l-21 34 39 -6 c21 -3 54 -19 74 -35z"/>
<path d="M11723 8867 c-42 -20 -43 -22 -43 -71 0 -42 -5 -55 -31 -82 -30 -31
-30 -32 -10 -39 26 -8 76 19 103 56 13 17 20 47 23 92 3 37 4 67 2 66 -1 0
-21 -10 -44 -22z"/>
<path d="M9778 8893 c4 -62 4 -64 42 -83 62 -32 70 -28 70 33 l0 52 -58 31
-57 31 3 -64z"/>
<path d="M10267 8701 c5 -41 3 -52 -11 -56 -9 -3 -23 -7 -32 -10 -15 -5 -14
-9 6 -30 17 -18 34 -25 61 -25 53 0 69 20 69 85 0 59 -6 67 -67 80 l-32 6 6
-50z"/>
<path d="M10568 8632 c4 -58 5 -60 34 -66 74 -15 78 -12 78 54 l0 60 -37 0
c-21 0 -47 3 -58 6 -19 5 -20 1 -17 -54z"/>
<path d="M10873 8560 c-24 -10 -46 -43 -36 -54 10 -9 58 -7 88 4 24 9 43 35
33 45 -10 11 -65 14 -85 5z"/>
<path d="M10975 12558 c-61 -25 -171 -27 -234 -4 -24 9 -51 16 -61 16 -21 0
-43 -48 -38 -85 l3 -27 208 -4 208 -3 9 24 c10 27 3 63 -18 88 -18 21 -15 21
-77 -5z"/>
<path d="M10722 12218 c-11 -11 -50 -17 -111 -17 -18 0 -44 -7 -58 -16 -23
-15 -24 -20 -18 -79 6 -57 5 -67 -20 -106 -21 -34 -31 -41 -48 -37 -12 3 -43
11 -68 17 -26 6 -57 22 -70 36 -27 28 -98 34 -119 9 -7 -8 -24 -15 -37 -15
-25 0 -62 -33 -112 -100 -14 -18 -44 -41 -68 -52 -31 -14 -44 -26 -49 -46 -11
-51 -14 -57 -44 -92 -17 -19 -33 -45 -36 -57 -9 -32 4 -73 21 -73 8 0 15 -6
15 -14 0 -8 12 -24 28 -36 15 -12 36 -36 47 -54 67 -107 113 -132 153 -81 20
25 21 25 27 5 3 -11 0 -32 -8 -47 -49 -94 -56 -111 -57 -129 -1 -10 -3 -52 -6
-92 -4 -56 -2 -78 10 -97 9 -13 16 -34 16 -45 0 -27 23 -70 49 -92 12 -10 21
-27 21 -38 0 -11 11 -27 25 -36 15 -10 25 -26 25 -40 0 -13 9 -32 20 -41 16
-14 20 -30 20 -84 0 -37 7 -102 16 -145 10 -48 14 -95 10 -123 -4 -25 -10 -83
-15 -128 -4 -45 -13 -89 -21 -97 -8 -10 -29 -16 -56 -16 -38 0 -44 -3 -50 -24
-3 -13 -19 -36 -36 -51 -26 -23 -29 -32 -25 -62 5 -29 2 -40 -21 -62 -15 -15
-34 -30 -43 -33 -12 -5 -20 -30 -30 -95 -7 -48 -18 -97 -26 -108 -19 -28 -16
-63 7 -75 16 -8 20 -21 20 -60 0 -58 38 -153 68 -169 11 -6 39 -13 63 -16 89
-12 88 -12 82 -48 -7 -43 20 -75 72 -87 58 -13 922 -23 1043 -12 122 11 144
25 148 93 2 40 3 42 52 58 60 21 101 46 109 69 4 9 15 29 26 44 11 15 23 50
28 79 5 28 15 59 24 69 19 22 20 76 0 84 -8 3 -15 18 -15 33 0 36 -19 103 -29
103 -4 0 -21 20 -39 45 -22 32 -31 55 -30 80 1 24 -6 43 -20 58 -12 13 -22 28
-22 35 0 19 -43 42 -82 42 -42 0 -68 21 -68 55 0 12 -11 51 -24 86 -23 64 -23
64 -5 114 13 37 18 80 19 161 0 85 3 113 14 117 7 3 17 18 20 33 4 15 23 54
42 87 19 32 34 64 34 71 0 7 11 23 25 36 14 13 23 30 21 37 -3 7 4 29 15 48
12 19 18 42 15 51 -3 9 1 28 10 43 13 22 14 37 5 96 -6 39 -13 82 -15 96 -1
15 -15 52 -29 81 -31 62 -35 87 -13 69 8 -7 17 -22 20 -35 6 -24 37 -39 61
-30 7 3 34 32 60 64 25 31 64 72 86 90 43 34 79 85 79 111 0 9 -16 37 -35 62
-25 33 -35 56 -35 81 0 45 -25 71 -82 87 -24 6 -48 13 -55 15 -6 1 -20 23 -31
47 -20 46 -59 80 -112 99 -41 14 -112 -12 -140 -51 -12 -17 -32 -31 -52 -34
-18 -4 -43 -9 -55 -13 -18 -5 -24 0 -36 29 -8 19 -20 38 -26 41 -6 4 -11 28
-11 54 0 26 -7 56 -15 66 -8 11 -15 28 -15 38 0 32 -36 58 -80 58 -22 0 -49 5
-59 12 -15 9 -26 9 -44 1 -14 -7 -28 -9 -31 -5 -12 12 -202 12 -214 0z m207
-76 c-12 -31 -8 -35 58 -56 54 -18 103 -63 103 -94 0 -9 7 -30 15 -46 21 -39
19 -48 -14 -80 l-28 -27 -27 33 c-23 29 -24 34 -10 43 9 6 26 18 38 27 20 17
19 17 -17 2 -22 -8 -55 -14 -75 -12 -47 4 -55 36 -18 73 32 32 47 31 87 -2 28
-24 31 -25 20 -6 -14 27 -50 53 -73 53 -10 0 -35 -15 -55 -34 -36 -33 -37 -35
-25 -68 6 -19 12 -39 12 -45 0 -16 -48 -25 -70 -13 -16 9 -18 17 -13 59 5 44
3 52 -20 75 -14 14 -37 26 -49 26 -24 0 -103 -48 -95 -57 3 -3 20 6 37 18 29
22 33 22 58 8 36 -19 42 -63 12 -79 -17 -9 -33 -9 -67 0 -60 15 -64 8 -11 -18
24 -12 38 -21 31 -22 -21 0 -55 -72 -49 -103 5 -26 4 -28 -17 -22 -18 6 -20 5
-9 -6 6 -7 12 -28 12 -46 0 -28 5 -35 35 -47 19 -8 35 -22 35 -30 0 -23 -16
-28 -31 -10 -7 9 -24 20 -37 25 -13 5 -27 19 -30 32 -6 19 -7 18 -12 -12 -8
-52 -33 -62 -70 -26 -37 36 -38 60 -2 73 43 15 47 14 54 -10 4 -15 6 -17 7 -6
1 12 6 15 17 11 13 -5 14 0 9 30 -4 21 -3 37 4 41 20 13 12 48 -19 83 l-31 34
21 33 c11 19 20 47 20 64 0 36 24 54 103 77 65 19 72 25 52 51 -23 30 -19 56
8 52 19 -3 22 -8 20 -45 -1 -24 0 -43 2 -43 23 0 33 14 25 36 -11 27 -3 57 14
51 6 -2 11 -20 11 -40 0 -24 5 -37 13 -37 10 0 12 8 7 30 -4 20 -2 37 6 46 20
24 41 -9 28 -44z m66 49 c8 -14 -27 -82 -39 -78 -18 6 -19 37 -2 62 17 26 31
31 41 16z m-225 -46 c0 -13 -4 -26 -9 -29 -13 -8 -44 43 -37 60 9 23 46 -2 46
-31z m-65 10 c24 -23 34 -55 17 -55 -4 0 -13 9 -20 20 -7 11 -17 20 -24 20 -6
0 -3 -9 7 -20 20 -22 14 -26 -14 -8 -26 16 -65 -1 -51 -22 9 -13 12 -13 24 3
12 15 14 15 19 3 4 -9 -5 -29 -20 -47 -15 -17 -30 -50 -34 -73 -4 -22 -11 -54
-15 -69 -4 -16 -1 -46 6 -67 12 -37 11 -40 -15 -64 -39 -36 -89 -34 -53 2 9 9
9 17 -1 35 -14 27 -12 72 4 72 6 0 11 -12 13 -27 2 -14 10 -29 18 -32 25 -10
16 43 -12 69 -23 21 -26 30 -21 62 8 48 24 64 41 40 12 -16 14 -16 20 -2 3 9
1 26 -5 37 -6 11 -8 31 -4 45 4 16 2 22 -5 18 -6 -4 -10 6 -10 24 0 29 27 50
48 37 5 -3 18 1 28 9 26 20 31 19 59 -10z m395 10 c15 -18 1 -40 -31 -50 -22
-7 -26 -25 -5 -25 7 0 19 -7 26 -15 21 -25 34 -17 16 10 -19 30 -20 35 -3 35
7 0 21 -18 31 -40 16 -38 17 -43 2 -65 -12 -19 -13 -25 -4 -25 27 -1 51 -50
44 -90 -3 -22 -2 -41 4 -45 6 -3 10 -21 10 -38 0 -18 0 -43 0 -57 0 -14 -5
-26 -10 -28 -6 -2 -10 -13 -10 -25 -1 -21 -1 -21 -15 -3 -13 17 -14 15 -8 -18
9 -58 -23 -44 -44 19 -11 33 -7 58 8 49 6 -3 7 4 4 19 -4 15 2 39 16 67 l23
43 -28 51 c-20 36 -26 59 -21 77 7 29 -15 59 -42 59 -18 0 -53 28 -53 41 0 5
12 15 28 23 24 14 25 15 6 16 -12 0 -24 -7 -28 -15 -6 -18 -26 -20 -26 -3 0
40 83 65 110 33z m-804 -163 c30 -21 53 -139 28 -149 -9 -3 -12 -13 -8 -29 4
-15 2 -24 -5 -24 -8 0 -6 -10 4 -31 13 -23 14 -34 5 -44 -10 -12 -15 -12 -36
2 -31 20 -31 7 1 -23 30 -28 31 -44 5 -75 l-20 -24 6 27 c5 22 2 29 -12 34
-32 10 -46 19 -44 29 1 6 8 9 16 7 25 -5 15 27 -13 42 l-28 14 28 7 c15 4 32
16 38 27 14 26 3 82 -18 99 -15 13 -15 12 -5 -8 17 -31 15 -63 -5 -85 -27 -30
-45 -23 -25 11 20 36 7 56 -43 65 -41 8 -61 37 -45 66 12 23 30 26 48 8 9 -9
12 -9 12 -1 0 7 -4 15 -10 18 -5 3 -10 10 -10 16 0 5 8 4 19 -3 15 -9 25 -7
52 10 37 23 48 26 65 14z m1228 -31 c10 -11 14 -25 10 -37 -6 -15 -4 -17 6 -7
16 15 40 -6 40 -36 0 -24 -17 -36 -47 -33 -17 3 -24 -3 -29 -22 -3 -14 -10
-24 -14 -21 -5 3 -10 0 -12 -6 -2 -7 -19 -17 -38 -23 -24 -8 -36 -19 -40 -36
-3 -14 -14 -26 -23 -28 -24 -5 -22 35 3 73 11 17 20 37 20 45 0 12 -2 13 -9 1
-12 -19 -33 -4 -26 19 3 10 1 21 -5 25 -6 4 -10 -7 -10 -29 0 -40 -21 -66 -55
-66 -13 0 -28 -7 -33 -17 -6 -10 -16 -14 -26 -10 -30 12 -16 36 38 61 29 14
56 32 59 40 4 10 -12 5 -51 -15 -71 -37 -89 -24 -38 27 33 33 40 36 81 32 41
-3 46 -1 52 20 13 55 110 84 147 43z m-1118 -26 c18 -14 17 -14 -12 -15 -19 0
-34 6 -38 15 -7 20 24 20 50 0z m85 -26 c6 -12 6 -19 0 -19 -12 0 -41 28 -41
40 0 15 30 -1 41 -21z m-44 -20 c48 -23 72 -54 54 -72 -7 -7 -17 1 -31 27 -12
20 -26 36 -31 36 -5 0 0 -15 11 -32 26 -44 26 -78 0 -78 -24 0 -25 -4 -4 -40
17 -28 14 -60 -7 -60 -6 0 -13 9 -16 20 -3 11 -11 20 -17 20 -7 0 -24 12 -38
28 -24 24 -26 33 -22 86 7 91 24 102 101 65z m345 -21 c3 -27 8 -33 43 -43 34
-10 45 -9 78 7 24 12 37 25 37 38 0 11 7 20 15 20 18 0 20 -31 3 -48 -7 -7
-21 -12 -32 -12 -20 -1 -20 -1 -3 -11 24 -14 67 13 67 42 0 11 5 17 10 14 20
-12 10 -54 -16 -72 -22 -14 -31 -15 -57 -5 -17 6 -33 10 -35 7 -6 -6 45 -25
67 -25 10 0 30 9 45 21 21 16 26 17 26 5 0 -19 -38 -46 -65 -46 -11 0 -37 9
-58 19 -20 10 -37 15 -37 10 0 -16 59 -39 100 -39 30 0 47 6 66 25 26 26 44
25 44 -1 0 -8 -5 -12 -10 -9 -6 4 -23 -5 -37 -19 -19 -19 -36 -26 -65 -26 -45
0 -93 22 -102 46 -6 15 -11 13 -37 -14 -33 -34 -91 -58 -111 -46 -8 5 -6 10 8
15 17 6 16 8 -8 18 -39 15 -35 19 15 14 29 -4 54 0 75 11 32 16 45 33 18 23
-10 -4 -12 0 -9 14 4 14 0 19 -15 19 -24 0 -38 16 -47 53 -6 21 -4 27 8 27 10
0 17 -11 19 -32z m-658 -19 c26 -17 46 -34 46 -38 0 -14 -29 -33 -63 -41 l-32
-8 32 -1 c55 -2 70 -33 66 -143 -2 -51 -4 -103 -3 -115 0 -12 -9 -27 -20 -33
-11 -6 -34 -24 -50 -40 -32 -31 -60 -39 -60 -17 0 22 29 56 52 59 14 2 25 15
34 40 12 36 12 39 -22 79 -38 46 -41 54 -18 45 9 -4 27 1 40 9 29 19 33 41 5
25 -25 -13 -44 -13 -36 0 10 16 -78 11 -99 -5 -31 -23 -42 -18 -18 8 12 13 22
33 22 45 0 16 8 24 31 29 l30 8 -25 24 c-42 40 -92 5 -61 -43 18 -27 11 -53
-15 -61 -10 -3 -23 -19 -29 -36 -7 -21 -16 -30 -28 -27 -28 5 -29 52 -1 74 27
22 46 58 50 94 2 19 15 31 53 49 28 14 54 31 58 38 11 17 9 18 61 -18z m630
-24 c22 -22 23 -25 6 -25 -19 0 -50 25 -50 41 0 16 18 10 44 -16z m900 4 c70
-25 96 -49 96 -90 0 -17 12 -42 30 -62 29 -34 39 -70 21 -81 -4 -3 -16 3 -26
14 -10 11 -26 20 -35 20 -10 0 -25 12 -35 26 -16 25 -16 26 2 20 15 -5 18 1
21 43 4 71 -17 83 -57 32 -36 -46 -38 -57 -11 -71 12 -6 20 -21 20 -35 0 -20
5 -25 24 -25 28 0 85 -44 73 -56 -4 -4 -17 2 -30 14 -32 30 -43 27 -18 -5 12
-14 19 -29 15 -32 -3 -3 -14 5 -24 19 l-20 25 12 -32 c23 -60 -11 -54 -46 9
l-18 33 26 -30 c26 -29 27 -29 20 -5 -3 14 -16 36 -29 49 -19 19 -32 23 -81
22 l-59 0 0 42 0 42 53 -1 c52 -2 53 -1 36 17 -10 11 -30 19 -50 19 -49 0 -54
31 -12 69 18 17 35 31 37 31 2 0 31 -10 65 -21z m-884 -52 c34 -4 34 -4 -7 -5
-26 -1 -47 4 -57 14 -25 24 -19 40 7 16 12 -11 38 -22 57 -25z m-277 -90 c-4
-7 -53 57 -53 68 0 3 7 5 15 5 9 0 19 8 23 18 4 11 9 1 13 -33 3 -27 4 -53 2
-58z m837 49 c-10 -32 -15 -36 -46 -36 -24 0 -34 -5 -34 -15 0 -19 -19 -20
-26 -1 -9 23 28 65 64 72 18 3 35 11 38 16 13 20 15 -3 4 -36z m170 31 c0 -7
-13 -26 -30 -42 -29 -28 -39 -55 -21 -55 5 0 11 7 15 15 3 8 13 15 21 15 13 0
15 -6 10 -32 -9 -41 -17 -50 -58 -64 -24 -9 -31 -17 -30 -33 3 -24 -19 -28
-37 -6 -12 15 -8 48 9 75 8 12 13 12 23 2 15 -15 44 -16 53 -1 4 6 -2 13 -13
16 -18 4 -42 41 -42 63 0 6 15 16 34 24 18 8 37 19 40 25 10 15 26 14 26 -2z
m-421 -70 c1 -10 -7 -20 -16 -24 -10 -3 -28 -15 -39 -25 -33 -29 -42 -3 -11
30 13 15 30 38 37 52 13 23 14 24 21 5 4 -11 8 -28 8 -38z m631 33 c0 -23 -35
-46 -45 -29 -7 11 22 49 37 49 4 0 8 -9 8 -20z m-1305 -66 c39 -35 42 -46 20
-64 -10 -9 -15 -9 -15 -1 0 6 -17 19 -37 28 -38 18 -52 46 -39 79 6 17 6 17
71 -42z m805 15 c-4 -22 -13 -46 -19 -52 -17 -17 -13 -31 4 -17 13 10 15 9 15
-11 0 -13 -7 -33 -15 -43 -8 -11 -14 -36 -14 -55 2 -34 2 -35 6 -6 8 52 53 83
53 37 0 -10 -9 -35 -20 -57 -24 -48 -27 -81 -3 -47 8 12 21 22 28 22 15 0 9
-34 -10 -63 -7 -10 -10 -27 -8 -38 5 -19 7 -19 23 6 24 37 33 16 12 -25 -22
-39 -36 -43 -40 -10 -2 14 -10 32 -17 40 -7 8 -15 35 -19 60 -4 25 -14 55 -22
68 -15 23 -14 33 16 137 5 17 11 45 15 63 10 47 24 39 15 -9z m-325 21 c29
-11 25 -26 -9 -40 -18 -7 -18 -9 -3 -9 10 -1 25 6 34 14 20 20 30 11 12 -11
-18 -22 -57 -36 -80 -29 -23 8 -25 25 -4 25 8 0 15 8 15 18 0 14 -2 15 -10 2
-5 -8 -10 -10 -10 -5 0 6 -4 3 -10 -5 -7 -12 -10 -12 -16 4 -5 13 -1 23 11 32
22 17 35 17 70 4z m95 -62 c0 -46 -22 -78 -52 -78 -11 0 -17 4 -14 9 3 5 0 11
-8 14 -8 3 -17 -1 -20 -9 -7 -18 -35 -18 -42 0 -3 8 -13 12 -25 9 -10 -3 -16
-9 -13 -14 8 -14 -40 -11 -54 3 -14 14 -16 77 -2 98 7 12 15 8 43 -23 28 -29
42 -37 70 -37 30 0 42 7 68 40 18 22 36 37 40 34 5 -3 9 -24 9 -46z m385 22
c7 -11 -46 -40 -75 -40 -12 0 -24 -9 -29 -22 l-8 -22 -12 23 c-11 19 -10 26 6
43 38 43 97 52 118 18z m-877 -15 c7 -14 12 -34 12 -43 0 -13 -5 -12 -25 9
-17 16 -24 31 -19 42 9 24 19 21 32 -8z m-470 -17 c-14 -18 -33 -37 -44 -42
-10 -6 -24 -18 -31 -26 -16 -19 -17 -6 -2 23 12 22 12 22 -10 3 -23 -21 -28
-11 -8 15 11 15 90 56 111 58 5 1 -3 -13 -16 -31z m198 -1 c35 -20 74 -73 74
-100 0 -15 -9 -32 -21 -40 l-21 -15 21 -7 c39 -12 22 -85 -20 -85 -15 0 -16 4
-6 29 10 26 7 33 -21 65 -32 36 -40 60 -24 70 13 8 52 -23 52 -42 1 -15 2 -15
11 1 9 15 4 27 -28 65 -61 73 -65 87 -17 59z m907 -1 c27 -20 21 -61 -15 -103
-46 -54 -52 -56 -60 -25 -3 15 -10 38 -14 52 -7 23 -6 24 9 11 15 -12 17 -12
11 4 -5 13 -4 16 4 11 8 -4 12 0 13 11 0 11 6 4 15 -17 l14 -35 -5 38 c-4 25
-2 37 6 37 8 0 8 4 -1 15 -15 18 -1 19 23 1z m-752 -26 c23 -16 45 -27 50 -24
5 3 14 -6 20 -20 9 -20 9 -29 -1 -41 -18 -21 -29 -19 -40 10 -7 17 -17 25 -34
25 -14 0 -30 8 -36 18 -9 15 -10 14 -8 -8 2 -18 14 -30 45 -45 24 -12 48 -26
54 -32 16 -16 1 -53 -21 -53 -12 0 -17 5 -14 14 3 8 -5 18 -23 24 -45 17 -55
28 -59 60 -2 17 -4 34 -5 39 -4 15 13 63 22 63 5 0 28 -13 50 -30z m1210 -24
c-11 -25 -25 -46 -31 -46 -14 0 -13 -33 2 -48 7 -7 23 -12 38 -12 20 0 27 -7
36 -35 12 -38 9 -45 -18 -45 -10 0 -23 11 -28 25 -5 13 -23 31 -40 40 -28 15
-30 19 -30 75 0 56 1 60 23 60 13 0 32 9 42 20 26 29 28 19 6 -34z m-1491 2
c16 -22 30 -44 30 -48 0 -4 -12 -11 -27 -15 -14 -3 -38 -15 -51 -26 -29 -23
-39 -24 -58 -5 -16 17 -19 30 -4 21 7 -4 8 3 4 22 -7 28 -7 28 14 9 12 -10 19
-22 17 -26 -6 -10 11 -7 48 8 32 14 34 25 7 59 -19 25 -26 43 -15 43 3 0 18
-19 35 -42z m540 5 c0 -21 2 -24 15 -13 12 10 15 10 15 0 0 -7 7 -10 15 -6 25
9 17 -13 -19 -48 -25 -25 -37 -31 -45 -23 -6 6 -11 16 -11 23 0 6 -14 28 -30
49 -31 39 -33 59 -5 35 13 -11 19 -11 32 3 21 20 33 13 33 -20z m978 -21 c-13
-22 -19 -44 -15 -49 5 -4 11 -2 15 5 6 8 12 6 22 -8 13 -18 15 -18 32 -3 10 9
18 11 18 5 0 -6 -4 -14 -10 -17 -20 -12 -10 -26 10 -15 26 14 26 -2 0 -25 -19
-17 -21 -17 -44 8 -14 15 -32 27 -41 27 -27 0 -27 26 2 73 33 56 42 56 11 -1z
m-1592 22 c-5 -12 -2 -15 10 -10 14 5 15 4 4 -9 -14 -17 -35 -21 -25 -5 3 6 1
10 -6 10 -8 0 -8 4 1 15 16 20 24 19 16 -1z m1319 -14 c0 -16 -8 -28 -22 -35
-13 -5 -23 -18 -23 -27 0 -10 -7 -18 -15 -18 -24 0 -19 60 7 87 28 30 53 26
53 -7z m165 -2 c-1 -30 -27 -62 -68 -83 -26 -13 -31 -19 -22 -30 7 -9 7 -15 1
-19 -13 -9 -34 31 -24 47 4 6 20 22 35 35 15 13 28 29 28 36 0 16 21 36 37 36
7 0 13 -10 13 -22z m-1013 -18 c10 -21 12 -21 17 -4 3 11 4 -8 2 -41 -2 -37
-12 -76 -25 -100 -21 -41 -25 -38 -36 28 -6 38 2 46 23 25 9 -9 12 -8 12 8 0
11 -4 24 -9 30 -4 5 -11 26 -14 47 -7 43 10 47 30 7z m1168 0 c3 -6 -1 -7 -9
-4 -18 7 -21 14 -7 14 6 0 13 -4 16 -10z m-627 -70 c1 -34 -3 -42 -28 -55 -38
-20 -43 -19 -37 7 3 12 2 30 -4 40 -11 21 1 24 20 6 10 -11 11 -9 5 7 -7 18
-6 18 9 6 15 -12 17 -11 17 13 0 15 4 25 9 22 5 -3 9 -24 9 -46z m-328 26 c0
4 7 -1 15 -12 8 -10 15 -14 15 -9 1 19 20 -20 20 -42 0 -42 -45 -40 -56 3 -4
13 -13 28 -22 33 -9 5 -13 15 -8 26 5 14 9 15 21 5 8 -7 15 -9 15 -4z m666 2
c4 -7 -5 -22 -23 -37 -16 -14 -33 -34 -36 -44 -4 -10 -11 -15 -17 -12 -15 9
-12 41 5 55 8 7 15 18 15 25 0 23 44 33 56 13z m-1301 -33 c-39 -32 -58 -32
-22 0 15 14 33 25 40 25 7 0 -1 -11 -18 -25z m716 11 c5 3 9 0 9 -6 0 -6 5 -8
10 -5 6 3 10 1 10 -6 0 -8 3 -9 14 0 11 9 12 6 8 -14 -2 -15 0 -25 7 -25 7 0
9 -4 6 -10 -9 -14 -48 -13 -63 2 -7 7 -12 23 -12 36 0 13 -4 20 -10 17 -6 -4
-7 1 -3 11 4 11 8 13 11 6 2 -7 8 -10 13 -6z m124 -6 c5 -8 11 -7 20 0 11 9
16 6 21 -14 8 -34 -10 -56 -47 -56 -31 0 -36 9 -17 28 10 10 10 17 0 32 -10
17 -10 20 2 20 8 0 18 -5 21 -10z m-558 -30 c54 -32 58 -100 7 -100 l-27 0 22
-24 c29 -31 24 -60 -12 -64 -32 -4 -34 -13 -7 -30 27 -17 25 -38 -5 -58 -20
-13 -23 -20 -14 -30 15 -18 3 -64 -16 -64 -19 0 -19 -19 0 -26 8 -4 15 -14 15
-24 0 -10 -7 -23 -15 -30 -13 -11 -15 -8 -15 14 0 18 -7 29 -23 35 -29 11 -51
37 -42 51 8 13 35 13 35 0 0 -5 7 -10 15 -10 22 0 18 34 -5 55 -11 10 -20 27
-20 37 0 16 5 19 29 13 41 -9 46 9 11 42 -22 21 -27 32 -20 43 8 13 13 13 31
2 33 -21 43 0 14 28 -41 39 -27 77 24 63 29 -7 26 11 -4 31 -16 10 -25 26 -25
41 0 30 6 31 47 5z m238 0 c8 -12 -21 -60 -35 -60 -13 0 -13 26 0 51 12 21 25
25 35 9z m895 -10 c0 -6 -5 -19 -12 -29 -16 -26 -3 -54 22 -46 17 5 20 2 20
-22 0 -16 5 -34 12 -41 7 -7 8 -12 2 -12 -6 0 -19 9 -29 20 -10 11 -13 20 -7
20 7 0 12 5 12 10 0 6 -8 10 -18 10 -35 0 -53 41 -36 84 7 18 34 22 34 6z
m-1262 -12 c9 -9 9 -15 0 -25 -9 -11 -6 -20 15 -39 34 -31 34 -49 2 -70 -24
-16 -25 -18 -9 -35 25 -28 14 -54 -24 -54 -37 0 -41 -9 -12 -25 26 -14 26 -46
0 -60 -14 -7 -19 -17 -15 -29 3 -11 -2 -24 -11 -32 -15 -12 -16 -12 -10 8 5
16 0 26 -19 41 -25 20 -33 46 -16 57 5 3 12 -4 16 -15 6 -20 29 -27 39 -11 3
5 -5 24 -17 42 -48 71 -45 106 6 63 40 -33 46 -18 12 32 -30 44 -20 65 19 39
25 -16 26 -16 26 0 0 9 -11 26 -25 37 -27 21 -31 39 -15 69 12 22 21 24 38 7z
m926 -4 c8 -22 -4 -40 -15 -23 -11 18 -11 39 0 39 5 0 12 -7 15 -16z m211 -40
l-30 -25 30 6 c17 3 38 8 48 11 27 8 20 -19 -13 -48 -16 -14 -30 -33 -30 -42
0 -22 15 -20 31 3 18 25 59 38 59 18 0 -8 -9 -22 -20 -32 -19 -18 -28 -65 -12
-65 5 0 18 14 30 30 23 30 46 38 57 20 3 -5 -8 -27 -26 -48 -31 -38 -33 -38
-61 -25 -15 8 -28 18 -28 23 0 5 -13 25 -30 43 -16 19 -30 42 -30 51 0 9 -7
30 -16 47 -18 36 -12 62 19 77 16 7 26 6 37 -4 13 -13 11 -18 -15 -40z m-903
-11 c8 -15 8 -30 0 -50 -12 -32 -28 -102 -37 -155 -6 -36 -14 -46 -28 -31 -4
3 -2 12 4 20 9 10 7 19 -5 38 -21 31 -20 35 3 35 29 0 32 13 10 46 -10 16 -19
32 -19 37 0 12 28 8 33 -5 9 -28 15 -1 8 38 -5 25 -4 49 2 60 9 15 11 16 14 4
3 -8 9 -25 15 -37z m198 18 c0 -20 -35 -51 -57 -51 -22 0 -14 28 15 49 34 26
42 26 42 2z m435 9 c7 -12 -12 -40 -26 -40 -5 0 -9 11 -9 25 0 25 23 35 35 15z
m-567 -22 c-6 -18 -28 -21 -28 -4 0 9 7 16 16 16 9 0 14 -5 12 -12z m229 -4
c6 -17 -71 -103 -83 -91 -11 11 4 52 30 80 29 31 44 34 53 11z m263 -14 c0 -4
16 -18 36 -29 22 -13 34 -27 32 -38 -5 -25 -29 -28 -35 -4 -3 12 -11 21 -18
21 -24 0 -59 36 -52 53 6 16 37 13 37 -3z m-170 -9 c0 -19 -52 -71 -71 -71 -5
0 -9 -9 -9 -20 0 -22 -18 -27 -26 -7 -6 16 20 79 41 101 23 23 65 21 65 -3z
m90 9 c0 -5 14 -25 30 -43 33 -39 37 -58 15 -77 -15 -13 -19 -8 -16 22 1 10
-11 24 -29 33 -17 9 -35 27 -40 41 -13 34 -13 34 15 34 14 0 25 -4 25 -10z
m245 -10 c14 -16 16 -23 7 -32 -9 -9 -16 -7 -32 7 -11 10 -20 24 -20 32 0 19
24 16 45 -7z m-44 -16 c14 -17 4 -44 -20 -52 -9 -3 -11 2 -7 16 4 11 2 23 -4
27 -5 3 -10 10 -10 16 0 15 26 10 41 -7z m-581 -11 c0 -10 -32 -43 -42 -43
-12 0 -10 24 4 38 13 13 38 16 38 5z m-60 -17 c0 -8 -4 -17 -9 -21 -12 -7 -24
12 -16 25 9 15 25 12 25 -4z m809 -27 c-12 -24 -26 -32 -34 -19 -4 6 1 23 10
37 13 19 19 22 25 12 5 -7 4 -21 -1 -30z m-324 -104 c-17 -27 -38 -25 -45 3
-6 26 -90 80 -90 57 0 -7 -16 -22 -35 -34 -25 -15 -35 -27 -35 -46 0 -28 -24
-35 -34 -9 -11 30 -6 53 14 59 11 3 25 18 32 33 8 16 21 27 33 27 11 0 29 10
39 23 l20 22 57 -57 c51 -52 55 -60 44 -78z m-340 114 c7 -11 -61 -80 -70 -71
-11 11 -4 39 15 60 22 24 45 28 55 11z m565 -10 c9 -15 8 -24 -1 -35 -17 -20
-26 -17 -33 11 -11 44 14 62 34 24z m-113 -55 c12 -19 13 -27 3 -39 -16 -20
-44 -20 -37 0 4 8 -4 22 -18 34 -16 11 -25 29 -25 46 l0 26 30 -21 c17 -12 38
-33 47 -46z m-382 26 c3 -6 -3 -22 -14 -36 -11 -14 -17 -32 -14 -40 9 -25 -17
-15 -29 11 -9 19 -8 29 6 50 17 26 40 33 51 15z m442 -6 c3 -8 1 -25 -5 -37
-8 -16 -11 -18 -11 -6 -1 9 -8 19 -16 23 -8 3 -15 12 -15 21 0 20 39 20 47 -1z
m-667 -4 c0 -5 -4 -10 -10 -10 -5 0 -10 5 -10 10 0 6 5 10 10 10 6 0 10 -4 10
-10z m850 0 c0 -6 -7 -22 -16 -35 -18 -28 -12 -58 10 -49 8 3 18 15 21 25 4
11 12 18 18 16 16 -6 10 -47 -9 -68 -10 -11 -13 -25 -9 -39 5 -16 3 -21 -6
-18 -8 3 -15 18 -17 35 -2 17 -12 39 -23 49 -21 19 -24 45 -9 75 11 20 40 26
40 9z m-800 -18 c0 -10 -7 -27 -15 -38 -14 -19 -14 -19 -15 3 0 28 10 53 21
53 5 0 9 -8 9 -18z m733 -24 c-3 -15 -9 -25 -14 -22 -11 6 -12 48 -2 58 12 12
22 -9 16 -36z m257 -40 c-27 -36 -18 -49 13 -20 13 12 26 22 30 22 14 0 6 -28
-13 -45 -11 -10 -20 -25 -20 -33 0 -10 -11 -3 -30 18 -16 18 -30 39 -30 45 0
6 15 28 33 50 30 37 32 38 35 16 2 -13 -6 -37 -18 -53z m-462 -3 c12 -12 22
-29 22 -38 0 -20 -22 -35 -28 -18 -2 7 -15 23 -28 34 -17 15 -24 31 -24 56 l1
36 17 -24 c9 -13 27 -33 40 -46z m154 13 c-10 -10 -16 -8 -30 5 -15 16 -15 19
-2 27 21 13 49 -15 32 -32z m-740 -10 c-9 -9 -12 -7 -12 12 0 19 3 21 12 12 9
-9 9 -15 0 -24z m455 -3 c20 -19 40 -35 45 -35 12 0 10 -34 -4 -48 -18 -18
-28 -14 -28 12 0 18 -10 29 -37 43 -25 11 -39 26 -41 41 -5 33 23 28 65 -13z
m-303 16 c3 -5 -3 -20 -14 -34 -11 -14 -20 -30 -20 -37 0 -16 -24 -6 -28 11
-3 16 34 69 48 69 5 0 11 -4 14 -9z m254 -69 c15 -9 44 -34 66 -55 32 -31 36
-39 26 -52 -11 -14 -14 -13 -24 6 -10 20 -22 29 -65 49 -8 3 -24 24 -35 46
-18 33 -21 36 -24 18 -2 -12 -12 -30 -23 -40 -10 -9 -19 -25 -19 -36 0 -20
-29 -26 -31 -5 -3 30 4 53 22 73 10 11 19 28 19 36 0 11 10 18 28 20 22 2 28
-1 30 -20 2 -12 15 -30 30 -40z m275 47 c6 -9 7 -24 4 -33 -6 -15 -10 -13 -31
11 -13 15 -22 32 -19 36 7 12 35 4 46 -14z m-627 -43 c-17 -26 -36 -34 -36
-16 0 22 33 61 43 51 7 -7 4 -18 -7 -35z m188 29 c8 -21 -3 -44 -26 -56 -13
-7 -17 -16 -13 -30 7 -22 -7 -25 -25 -4 -14 17 -5 52 23 83 24 26 33 27 41 7z
m566 5 c0 -5 -4 -12 -10 -15 -5 -3 -10 -11 -10 -17 0 -6 6 -6 15 2 20 16 24
11 32 -34 4 -29 1 -42 -15 -59 -11 -12 -22 -31 -24 -42 -4 -17 -6 -15 -13 9
-6 21 -2 41 14 75 12 25 15 38 8 29 -19 -24 -37 -23 -37 3 0 11 -4 28 -10 38
-8 15 -5 18 20 19 17 0 30 -3 30 -8z m150 -14 c0 -13 -8 -34 -19 -47 -10 -13
-21 -33 -23 -44 -4 -17 -6 -16 -13 8 -5 20 -2 40 10 68 20 43 45 52 45 15z
m-1048 -20 c16 -35 4 -56 -32 -56 -16 0 -30 4 -30 10 0 5 10 9 23 7 23 -2 26
11 12 46 -11 27 14 20 27 -7z m662 -20 c38 -47 43 -65 24 -84 -16 -16 -29 -15
-22 2 3 7 -6 26 -20 41 -14 14 -22 33 -20 40 3 7 1 16 -5 20 -6 3 -11 10 -11
16 0 20 19 7 54 -35z m174 10 c10 -19 11 -34 4 -54 l-10 -27 -2 25 c0 14 -7
36 -15 50 -18 31 -19 43 -2 38 6 -3 18 -17 25 -32z m-798 14 c0 -5 -4 -10 -10
-10 -5 0 -10 5 -10 10 0 6 5 10 10 10 6 0 10 -4 10 -10z m50 -5 c0 -8 -4 -15
-9 -15 -13 0 -22 16 -14 24 11 11 23 6 23 -9z m657 -35 c3 -11 9 -20 14 -20 5
0 9 -9 9 -20 0 -11 -2 -20 -5 -20 -13 0 -52 55 -48 67 8 20 24 16 30 -7z
m-979 -31 c23 -27 21 -59 -4 -59 -8 0 -11 6 -8 15 3 8 -1 24 -10 37 -16 22
-23 61 -8 43 4 -6 17 -22 30 -36z m1317 -6 c-8 -12 -15 -32 -15 -43 0 -12 -4
-18 -10 -15 -15 10 -12 58 6 84 22 31 40 6 19 -26z m-934 -18 c-18 -23 -22
-25 -27 -11 -8 21 25 61 39 47 6 -6 2 -19 -12 -36z m84 35 c3 -5 -2 -21 -11
-35 -15 -23 -15 -25 0 -31 20 -8 21 -48 1 -64 -23 -19 -30 -4 -14 27 11 20 11
27 2 30 -13 5 -18 65 -6 76 9 10 21 9 28 -3z m-191 -16 c7 -18 -1 -37 -13 -29
-5 2 -14 -8 -21 -23 -12 -24 -14 -25 -18 -7 -2 11 -10 24 -18 28 -23 13 -16
28 11 21 18 -4 27 -1 31 10 8 20 20 20 28 0z m776 -20 c0 -8 -4 -14 -10 -14
-5 0 -10 4 -10 9 0 5 -3 18 -7 28 -6 16 -5 16 10 4 9 -7 17 -20 17 -27z m-730
6 c0 -11 -4 -20 -9 -20 -11 0 -22 26 -14 34 12 12 23 5 23 -14z m250 -14 c0
-26 -46 -64 -61 -49 -11 11 38 86 52 78 5 -4 9 -17 9 -29z m295 14 c4 -11 17
-32 31 -47 36 -38 19 -46 -21 -9 -19 18 -35 42 -35 54 0 28 17 29 25 2z m515
-5 c0 -8 -10 -24 -22 -35 -19 -17 -21 -24 -10 -40 10 -17 10 -20 -3 -20 -27 0
-29 47 -4 84 23 34 39 38 39 11z m-1310 7 c0 -5 11 -22 25 -38 30 -35 31 -49
6 -66 -10 -7 -21 -23 -25 -35 -9 -27 -26 -31 -19 -5 2 10 -5 26 -16 36 -26 24
-27 40 -2 26 47 -25 69 0 31 35 -21 19 -27 55 -10 55 6 0 10 -4 10 -8z m617
-9 c5 -13 -62 -94 -71 -86 -13 13 -5 40 19 61 14 12 25 27 25 33 0 13 22 7 27
-8z m63 -12 c25 -21 32 -32 24 -40 -13 -14 -59 19 -67 49 -7 27 3 25 43 -9z
m450 2 c0 -10 -7 -27 -15 -37 -8 -11 -15 -28 -15 -39 0 -10 -4 -15 -10 -12
-16 10 -12 67 7 87 20 23 33 23 33 1z m-924 -48 c6 -23 0 -45 -10 -34 -10 12
-15 59 -6 59 5 0 12 -11 16 -25z m711 10 c3 -9 3 -18 0 -21 -6 -7 -47 18 -47
28 0 15 41 8 47 -7z m-577 -14 c0 -24 -18 -37 -32 -23 -8 8 -7 16 2 27 17 21
30 19 30 -4z m690 0 c0 -26 -26 -85 -44 -100 -25 -21 -30 8 -6 34 12 13 20 30
17 37 -5 16 10 48 23 48 6 0 10 -8 10 -19z m-910 -11 c27 -27 25 -55 -7 -96
l-26 -35 -13 38 c-15 42 -12 52 10 34 34 -28 49 14 16 44 -11 10 -20 22 -20
27 0 14 19 9 40 -12z m850 -6 c0 -8 -4 -14 -10 -14 -5 0 -10 9 -10 21 0 11 5
17 10 14 6 -3 10 -13 10 -21z m189 -20 c-6 -8 -12 -28 -11 -45 1 -25 -2 -28
-14 -18 -21 17 -17 59 9 87 18 20 23 21 25 7 2 -9 -2 -23 -9 -31z m-881 12 c3
-12 -1 -17 -10 -14 -7 3 -15 13 -16 22 -3 12 1 17 10 14 7 -3 15 -13 16 -22z
m222 4 c0 -10 -9 -24 -20 -30 -12 -6 -20 -21 -20 -36 0 -14 -4 -22 -10 -19
-13 8 -13 55 0 55 6 0 15 11 20 25 11 30 30 33 30 5z m180 -8 c24 -20 32 -34
27 -46 -9 -23 -23 -13 -43 29 -13 28 -19 32 -30 22 -7 -7 -20 -18 -29 -25 -8
-7 -15 -24 -15 -37 0 -28 -12 -32 -29 -11 -9 11 -8 17 4 29 8 9 15 23 15 32 0
14 30 33 55 34 6 1 26 -12 45 -27z m126 -17 c16 -47 18 -75 4 -75 -15 0 -37
51 -38 88 -1 44 16 37 34 -13z m-56 9 c0 -8 -4 -12 -10 -9 -5 3 -10 13 -10 21
0 8 5 12 10 9 6 -3 10 -13 10 -21z m310 -29 c-7 -8 -10 -26 -8 -39 4 -17 1
-23 -9 -19 -16 6 -17 34 -1 68 7 17 15 22 21 16 7 -7 6 -15 -3 -26z m151 -15
c-12 -17 -18 -36 -14 -46 4 -12 2 -15 -8 -12 -25 8 -21 43 8 74 34 35 44 24
14 -16z m-316 20 c3 -11 2 -28 -4 -37 -8 -14 -10 -15 -11 -3 0 8 -3 25 -6 38
-8 27 12 30 21 2z m-692 -4 c7 -18 -20 -56 -41 -56 -12 0 -13 3 -4 12 7 7 12
22 12 35 0 25 24 32 33 9z m137 -13 c0 -10 -4 -24 -9 -31 -7 -11 -9 -11 -14 2
-7 19 1 46 14 46 5 0 9 -8 9 -17z m56 -17 c-11 -35 -26 -39 -26 -7 0 17 18 41
31 41 3 0 1 -15 -5 -34z m124 3 c0 -5 -10 -23 -21 -38 -12 -16 -18 -34 -15
-40 4 -6 1 -11 -7 -11 -27 0 -28 32 -2 72 23 35 45 43 45 17z m423 1 c-3 -11
-9 -20 -14 -20 -5 0 -9 9 -9 20 0 11 6 20 14 20 9 0 12 -7 9 -20z m-693 -13
c0 -13 5 -28 11 -34 7 -7 14 -54 16 -105 2 -51 10 -120 17 -153 16 -71 10
-140 -14 -175 -18 -26 -35 -104 -20 -95 9 6 -5 -64 -16 -73 -4 -4 -4 7 -1 24
3 17 3 44 -1 59 -7 24 -9 21 -25 -37 -36 -126 -42 -142 -64 -169 -28 -33 -29
-43 -3 -29 14 7 20 8 20 0 0 -6 -12 -15 -27 -21 -16 -6 -41 -17 -56 -25 -36
-18 -47 -18 -47 1 0 9 -6 12 -15 9 -9 -4 -15 0 -15 10 0 9 7 16 15 16 11 0 15
8 13 28 -3 25 0 27 34 27 46 0 67 20 73 71 l5 39 -10 -32 c-16 -49 -30 -40
-25 15 l5 47 -13 -45 c-7 -25 -17 -45 -21 -45 -13 0 -17 86 -6 140 5 28 20 85
32 128 20 72 21 84 10 175 -15 117 -15 152 -2 152 17 0 100 86 100 103 0 9 7
17 15 17 9 0 15 -9 15 -23z m40 1 c0 -18 -2 -20 -9 -8 -6 8 -7 18 -5 22 9 14
14 9 14 -14z m322 -26 c-12 -15 -27 -37 -32 -50 -6 -13 -14 -20 -20 -17 -19
12 -10 45 18 62 15 10 31 24 35 31 5 7 11 11 15 8 3 -4 -4 -19 -16 -34z m128
23 c15 -18 6 -45 -15 -45 -10 0 -15 10 -15 30 0 33 11 38 30 15z m115 5 c3 -5
1 -10 -4 -10 -6 0 -11 5 -11 10 0 6 2 10 4 10 3 0 8 -4 11 -10z m-167 -52 c-1
-15 -4 -28 -8 -28 -15 0 -30 26 -30 52 0 25 2 27 19 16 12 -7 19 -22 19 -40z
m332 21 c0 -5 -4 -9 -10 -9 -5 0 -10 7 -10 16 0 8 5 12 10 9 6 -3 10 -10 10
-16z m90 12 c0 -5 -7 -14 -15 -21 -24 -20 -6 -33 36 -26 30 5 39 3 39 -8 0 -8
-5 -18 -10 -21 -6 -4 -8 -16 -4 -27 4 -15 2 -19 -7 -16 -8 3 -15 14 -17 26 -2
13 -11 22 -21 22 -30 0 -46 26 -33 55 11 24 32 34 32 16z m-1060 -42 c0 -20
-5 -29 -16 -29 -11 0 -14 5 -10 16 3 9 6 25 6 35 0 11 5 17 10 14 6 -3 10 -19
10 -36z m82 -1 c-15 -15 -24 -6 -16 16 5 12 10 14 17 7 8 -8 8 -14 -1 -23z
m883 -29 c74 -70 79 -91 71 -305 -9 -228 9 -323 65 -343 19 -7 29 -17 29 -31
0 -11 11 -30 25 -42 28 -24 33 -45 10 -45 -8 0 -11 5 -8 10 4 6 -2 8 -15 5
-18 -5 -20 -1 -20 24 1 16 -4 34 -10 40 -9 9 -12 3 -12 -24 0 -49 -23 -56 -54
-15 -31 42 -57 94 -68 137 -5 19 -13 52 -19 73 -5 21 -16 48 -24 60 -44 69
-49 128 -27 347 5 47 5 95 0 108 -9 26 -11 52 -3 52 2 0 29 -23 60 -51z m-122
-22 c13 -47 15 -49 16 -19 1 43 17 41 25 -3 15 -77 -30 -335 -57 -335 -8 0 -4
61 10 150 2 14 6 52 8 85 l5 60 -15 -64 c-8 -35 -22 -87 -31 -114 -21 -64 -20
-88 6 -182 16 -56 20 -90 15 -124 -6 -44 -4 -49 19 -64 21 -14 24 -22 19 -47
-4 -25 -3 -29 10 -24 8 3 18 0 22 -6 3 -6 1 -9 -6 -8 -7 2 -14 -3 -15 -9 -1
-7 -2 -16 -3 -19 -2 -11 -31 25 -31 39 0 21 -21 58 -47 85 -13 13 -23 34 -23
51 0 16 -6 43 -14 62 -13 30 -13 26 -12 -64 2 -97 9 -126 21 -88 7 22 20 27
30 12 3 -5 0 -13 -6 -16 -7 -5 -2 -12 13 -19 26 -13 35 -43 19 -59 -8 -8 -11
-3 -11 17 0 18 -4 26 -12 23 -7 -2 -12 -14 -11 -26 2 -11 -2 -21 -7 -21 -6 0
-10 8 -10 19 0 10 -6 24 -14 30 -12 10 -13 8 -9 -8 7 -26 -5 -27 -23 -3 -12
15 -13 14 -14 -12 0 -19 -4 -26 -9 -20 -5 5 -7 30 -4 57 5 41 8 46 21 35 13
-11 14 -11 8 0 -19 32 -14 221 5 190 5 -8 9 16 9 61 0 41 -2 72 -5 69 -7 -6
-36 -164 -41 -218 -6 -74 -20 -128 -28 -108 -4 9 -1 29 8 47 11 21 13 37 7 54
-6 16 -2 63 15 153 20 104 24 154 22 258 -3 121 -2 129 17 136 11 4 28 17 38
28 29 31 53 17 70 -41z m157 42 c0 -5 -4 -9 -10 -9 -5 0 -10 7 -10 16 0 8 5
12 10 9 6 -3 10 -10 10 -16z m-709 -26 c16 28 70 22 101 -10 14 -16 29 -37 33
-48 7 -18 9 -16 17 13 6 21 15 32 27 32 35 0 39 -20 31 -160 -7 -125 -22 -196
-40 -185 -4 3 -11 64 -15 137 l-8 133 -14 -45 c-18 -58 -9 -178 18 -239 23
-53 25 -72 3 -45 -15 19 -15 19 -10 -1 19 -72 23 -110 16 -129 -8 -21 -8 -21
-15 -1 -19 56 -22 60 -20 25 2 -19 5 -42 8 -50 3 -8 8 -32 12 -52 4 -29 9 -36
23 -32 11 3 10 0 -5 -12 -13 -9 -23 -28 -24 -43 -1 -20 -3 -17 -10 14 -16 68
-18 71 -36 45 -15 -21 -15 -23 1 -32 9 -5 16 -19 15 -31 0 -12 -3 -16 -6 -9
-2 6 -9 10 -14 7 -5 -4 -6 2 -2 11 4 12 2 15 -8 12 -8 -3 -14 -13 -14 -24 0
-10 -5 -17 -10 -14 -6 3 -9 10 -8 15 1 6 6 28 11 51 11 51 19 64 36 58 8 -3
16 4 19 18 4 13 2 25 -3 26 -6 2 -11 18 -11 35 -1 27 -2 28 -6 7 -2 -14 -14
-50 -27 -80 -13 -30 -28 -73 -33 -94 -9 -46 -30 -59 -35 -21 -3 29 -21 35 -26
8 -3 -15 -1 -16 7 -3 13 18 14 1 2 -19 -10 -15 -31 -7 -31 13 0 7 7 21 15 32
15 19 15 19 34 -3 l19 -22 5 25 c3 16 -1 28 -9 31 -22 8 -17 43 6 43 11 0 20
2 20 4 0 2 3 13 6 23 6 15 4 16 -7 6 -19 -19 -29 -16 -29 8 0 11 5 17 10 14
13 -8 14 276 1 342 -6 26 -13 74 -16 106 -9 78 -25 72 -25 -10 -1 -51 -3 -64
-11 -51 -16 29 -22 140 -9 173 l12 30 10 -25 c8 -22 10 -23 19 -7z m299 -2 c0
-20 -17 -37 -27 -28 -7 8 7 47 18 47 5 0 9 -9 9 -19z m76 -8 c-10 -10 -19 5
-10 18 6 11 8 11 12 0 2 -7 1 -15 -2 -18z m-616 -130 c0 -89 -11 -126 -24 -80
-11 38 -19 184 -12 204 7 16 9 16 21 -7 9 -16 14 -58 15 -117z m580 98 c0 -6
-4 -13 -10 -16 -5 -3 -10 1 -10 9 0 9 5 16 10 16 6 0 10 -4 10 -9z m65 -38
c14 -75 4 -233 -15 -233 -12 0 -30 83 -37 172 -5 71 -4 83 12 94 24 18 31 11
40 -33z m399 -24 c10 -54 7 -151 -10 -234 -14 -73 -14 -85 1 -140 9 -33 23
-75 31 -92 17 -40 5 -43 -18 -5 -11 16 -18 21 -18 12 0 -9 8 -27 17 -40 l16
-25 -25 23 c-40 36 -54 127 -38 249 6 53 12 138 13 190 1 63 5 93 13 93 6 0
14 -14 18 -31z m-490 1 c25 -9 26 -11 26 -108 0 -66 7 -125 20 -177 16 -64 18
-89 11 -136 -6 -32 -15 -68 -21 -80 -10 -17 -9 -30 0 -59 20 -62 13 -75 -49
-78 -30 -2 -58 1 -63 6 -20 20 -35 304 -18 348 7 17 11 83 11 156 -2 124 -1
127 21 131 13 2 26 5 30 6 4 0 18 -3 32 -9z m-323 -279 c-1 -33 3 -78 10 -101
11 -37 10 -46 -6 -76 -13 -24 -25 -34 -42 -34 -16 0 -23 5 -19 13 21 51 46
173 46 224 0 25 3 43 7 40 3 -4 5 -34 4 -66z m611 -67 c12 -69 9 -154 -5 -154
-27 0 -37 25 -37 90 0 76 8 112 24 107 6 -2 14 -21 18 -43z m-404 -164 c0 -32
-1 -33 -8 -10 -4 14 -8 54 -8 90 l1 65 7 -55 c5 -30 8 -71 8 -90z m462 56 c0
-34 -17 -3 -23 39 l-5 40 13 -30 c8 -16 14 -39 15 -49z m5 -36 c-3 -5 -13 -10
-21 -10 -8 0 -12 5 -9 10 3 6 13 10 21 10 8 0 12 -4 9 -10z m-755 -10 c0 -5
-5 -10 -11 -10 -5 0 -7 5 -4 10 3 6 8 10 11 10 2 0 4 -4 4 -10z m655 0 c3 -5
1 -10 -4 -10 -6 0 -11 5 -11 10 0 6 2 10 4 10 3 0 8 -4 11 -10z m-959 -73
c-18 -43 -51 -66 -53 -36 -1 11 5 19 13 19 8 0 17 6 19 13 20 56 28 71 32 55
2 -9 -3 -32 -11 -51z m324 44 c0 -11 -13 -29 -30 -41 l-30 -21 0 26 c0 20 4
26 15 21 9 -3 19 3 25 14 13 25 20 25 20 1z m50 14 c0 -2 -9 -22 -21 -44 -13
-26 -25 -38 -35 -34 -8 3 -18 -4 -23 -18 -10 -24 -10 -24 -10 -2 -1 15 9 28
29 38 17 9 30 24 30 34 0 10 3 21 7 24 7 8 23 9 23 2z m-297 -12 c4 -3 2 -12
-3 -19 -6 -6 -10 -16 -9 -20 6 -36 -25 -49 -36 -15 -10 34 27 76 48 54z m947
-23 c0 -10 7 -26 16 -34 10 -10 11 -16 4 -16 -8 0 -10 -8 -7 -21 9 -35 -6 -11
-25 38 -17 45 -16 69 3 58 5 -4 9 -15 9 -25z m28 5 c-3 -3 -9 2 -12 12 -6 14
-5 15 5 6 7 -7 10 -15 7 -18z m19 -7 c-3 -7 -5 -2 -5 12 0 14 2 19 5 13 2 -7
2 -19 0 -25z m271 -2 c2 -19 14 -34 38 -48 23 -13 34 -27 33 -41 0 -21 -1 -21
-8 -2 -4 11 -16 20 -27 20 -18 0 -63 66 -64 93 0 26 25 5 28 -22z m-40 2 c7
-7 12 -25 12 -41 0 -15 4 -26 8 -23 5 3 6 -9 3 -27 -5 -29 -6 -30 -9 -7 -2 13
-17 39 -33 58 -16 18 -29 37 -29 42 0 14 34 12 48 -2z m-711 -63 c2 -26 1 -27
-5 -7 -10 32 -27 27 -25 -6 1 -26 1 -26 -9 -5 -14 28 -3 55 19 51 12 -2 19
-14 20 -33z m513 -6 c0 -10 -4 -19 -10 -19 -5 0 -10 12 -10 26 0 14 4 23 10
19 6 -3 10 -15 10 -26z m-1071 -3 c15 -18 -37 -102 -53 -85 -8 7 -4 16 12 29
24 20 30 55 10 63 -8 4 -7 6 3 6 9 1 22 -5 28 -13z m1028 -8 c-3 -8 -6 -5 -6
6 -1 11 2 17 5 13 3 -3 4 -12 1 -19z m-1083 -31 c-7 -18 -34 -24 -34 -7 0 6 5
10 10 10 6 0 10 8 10 17 0 12 3 14 10 7 6 -6 8 -18 4 -27z m1406 2 c0 -11 -4
-18 -10 -14 -5 3 -7 12 -3 20 7 21 13 19 13 -6z m-1050 4 c-1 -18 -38 -55 -49
-49 -15 10 -14 22 5 40 16 16 44 22 44 9z m60 0 c0 -5 -9 -19 -20 -33 -15 -20
-22 -22 -31 -13 -10 10 -9 17 6 33 18 20 45 27 45 13z m37 -18 c-10 -21 -37
-36 -37 -19 0 15 22 44 34 44 11 0 12 -5 3 -25z m56 5 c-3 -11 -12 -20 -19
-20 -17 0 -18 12 -2 28 18 18 27 15 21 -8z m42 0 c-20 -22 -31 -20 -22 5 4 8
14 15 23 15 16 0 16 -2 -1 -20z m-434 -12 c-9 -25 -31 -36 -31 -16 0 15 19 38
32 38 4 0 4 -10 -1 -22z m46 -3 c-13 -26 -37 -34 -37 -12 0 16 20 37 36 37 9
0 9 -6 1 -25z m51 0 c-11 -25 -19 -30 -31 -19 -10 10 12 44 28 44 12 0 12 -5
3 -25z m62 5 c-10 -19 -40 -28 -40 -12 0 13 23 32 37 32 11 0 11 -5 3 -20z
m611 3 c13 -15 12 -15 -11 -3 -34 17 -36 20 -18 20 9 0 22 -7 29 -17z m48 -12
c14 -22 14 -23 -3 -20 -10 2 -23 14 -27 27 -11 30 8 25 30 -7z m43 12 c21 -19
23 -33 4 -33 -7 0 -21 11 -30 25 -19 29 -3 35 26 8z m58 -2 c13 -25 13 -31 -2
-31 -7 0 -18 11 -25 25 -9 20 -8 25 3 25 7 0 18 -9 24 -19z m52 2 c10 -9 18
-20 18 -25 0 -14 -22 -9 -36 10 -25 33 -13 44 18 15z m62 1 c17 -17 22 -44 7
-44 -8 0 -41 43 -41 55 0 10 19 5 34 -11z m-1074 -14 c-9 -17 -30 -28 -30 -16
0 16 15 36 26 36 12 0 12 -4 4 -20z m755 -4 c52 -24 111 -81 142 -138 27 -50
25 -180 -4 -234 -35 -65 -70 -101 -126 -128 -72 -35 -131 -42 -199 -22 -225
65 -279 350 -94 491 78 60 193 73 281 31z m375 5 c12 -23 -3 -37 -17 -18 -22
27 -24 37 -9 37 8 0 20 -9 26 -19z m42 2 c21 -19 24 -45 4 -37 -14 5 -40 54
-29 54 4 0 15 -7 25 -17z m65 -8 c9 -26 -4 -28 -26 -6 -21 21 -21 21 -1 21 11
0 23 -7 27 -15z m41 3 c14 -14 16 -28 2 -28 -5 0 -14 9 -20 20 -12 22 -1 27
18 8z m-1378 -14 c0 -8 -5 -12 -10 -9 -6 4 -8 11 -5 16 9 14 15 11 15 -7z
m1425 -4 c3 -5 1 -10 -4 -10 -6 0 -11 5 -11 10 0 6 2 10 4 10 3 0 8 -4 11 -10z
m35 -6 c0 -8 -4 -12 -10 -9 -5 3 -10 10 -10 16 0 5 5 9 10 9 6 0 10 -7 10 -16z
m-1352 -21 c4 -10 13 -18 21 -18 16 0 34 -52 24 -68 -4 -6 -1 -7 7 -2 10 6 12
4 7 -8 -3 -10 -2 -17 3 -17 5 0 7 -7 4 -15 -4 -8 -1 -15 6 -15 7 0 10 -7 6
-16 -3 -8 -2 -12 4 -9 6 3 10 1 10 -4 0 -6 -6 -11 -12 -12 -7 0 0 -5 16 -9 16
-5 42 -6 57 -3 16 3 42 0 58 -7 16 -6 39 -9 51 -5 19 6 21 13 18 48 -3 25 1
54 10 72 17 36 52 75 65 75 6 0 2 -9 -7 -19 -11 -13 -15 -27 -11 -40 3 -12 2
-21 -3 -21 -5 0 -10 -10 -11 -22 -4 -94 -19 -118 -73 -118 -26 0 -27 -2 -21
-32 8 -45 30 -76 65 -94 16 -8 26 -18 24 -23 -3 -4 4 -15 15 -25 22 -18 22
-57 1 -64 -8 -2 -12 2 -10 12 8 41 -55 94 -138 116 -23 5 -47 17 -55 26 -11
14 -13 14 -21 0 -13 -23 -25 -20 -69 15 -24 19 -37 24 -33 14 8 -20 -21 -53
-62 -70 -27 -11 -31 -17 -26 -41 3 -16 12 -34 21 -41 22 -16 7 -27 -18 -14
-42 23 -41 89 2 109 28 14 34 26 17 37 -15 9 -12 42 6 69 10 17 12 26 4 31 -7
4 -9 29 -6 68 5 55 4 58 -6 30 -11 -34 -22 -41 -33 -23 -12 20 16 119 38 135
28 20 46 19 55 -2z m332 4 c0 -7 -15 -27 -33 -43 -19 -16 -32 -34 -30 -40 2
-6 -3 -16 -11 -23 -11 -9 -12 -19 -3 -46 13 -45 6 -51 -42 -37 -21 7 -53 12
-70 12 -21 0 -33 6 -37 18 -3 9 -15 39 -25 65 -39 94 -26 103 149 106 78 1
102 -2 102 -12z m673 -5 c-2 -10 3 -25 12 -32 15 -13 20 -12 35 8 22 27 29 19
35 -42 4 -47 -11 -76 -40 -76 -9 0 -12 -6 -8 -15 5 -14 8 -14 32 1 14 10 30
23 34 31 10 16 39 17 54 2 9 -9 9 -19 -2 -39 -20 -38 -6 -54 42 -46 31 6 45 3
64 -13 34 -28 34 -95 -2 -142 -14 -19 -31 -48 -38 -66 -13 -33 -38 -50 -53
-35 -5 5 6 30 25 58 18 27 36 58 39 70 5 20 4 20 -23 7 -56 -28 -73 -9 -54 60
5 17 3 27 -4 27 -6 0 -11 -8 -11 -17 0 -10 -7 -27 -15 -37 -8 -11 -13 -27 -10
-36 3 -9 -2 -33 -10 -54 -9 -20 -13 -41 -10 -46 9 -15 -6 -40 -25 -40 -13 0
-16 6 -12 25 2 14 8 25 13 25 15 0 10 27 -11 51 l-19 24 -2 -30 c-1 -16 -2
-36 -2 -42 1 -7 -3 -11 -7 -8 -5 3 -11 -4 -15 -15 -6 -20 -42 -46 -52 -37 -2
3 2 16 10 29 8 12 18 33 22 45 5 18 3 22 -9 17 -8 -3 -13 -11 -10 -18 3 -7 -8
-27 -23 -44 -26 -30 -31 -32 -98 -32 l-70 0 31 25 c32 25 108 119 110 136 1 5
2 10 4 12 1 1 4 25 7 52 6 61 22 83 21 29 -1 -38 36 -134 52 -134 10 0 60 58
60 70 0 5 2 17 5 27 3 10 -3 -1 -14 -24 -11 -24 -27 -43 -35 -43 -13 0 -12 7
6 38 l21 37 -25 -29 c-18 -21 -27 -26 -33 -17 -4 8 5 26 26 49 24 26 26 30 6
13 -19 -18 -30 -22 -38 -14 -8 8 -7 13 2 18 8 6 10 4 4 -5 -6 -9 -4 -11 5 -5
10 6 10 10 -3 20 -12 9 -14 14 -5 23 9 9 9 12 -1 12 -7 0 -9 5 -6 10 3 6 16
10 28 10 17 0 19 2 7 9 -8 6 -17 8 -20 6 -3 -2 -11 4 -16 13 -10 16 -10 46 -1
112 2 14 5 31 5 38 1 6 6 12 11 12 5 0 7 -8 4 -18z m-41 -2 c2 -5 1 -35 0 -65
-4 -62 -28 -77 -39 -25 -3 17 -10 33 -14 36 -5 3 -7 9 -4 14 3 4 -2 13 -10 20
-8 7 -15 16 -15 21 0 12 78 11 82 -1z m73 1 c3 -5 1 -12 -5 -16 -5 -3 -10 1
-10 9 0 18 6 21 15 7z m85 -2 c0 -6 7 -9 15 -5 8 3 15 1 15 -4 0 -5 6 -7 13
-4 7 2 22 -4 33 -14 11 -11 26 -21 34 -24 11 -3 15 -22 15 -71 0 -66 0 -67
-27 -67 -25 0 -28 4 -29 33 -1 17 -1 35 0 39 1 8 -58 42 -74 43 -5 0 -10 10
-10 22 0 11 -3 25 -7 29 -13 13 -9 34 7 34 8 0 15 -5 15 -11z m-1293 -204 c3
-66 1 -136 -4 -155 -8 -26 -9 -12 -5 60 4 83 -5 179 -23 260 -3 17 0 14 11
-10 12 -24 18 -73 21 -155z m24 100 l2 -40 6 45 7 45 8 -60 c6 -41 11 -54 16
-41 6 19 7 18 22 -3 13 -18 14 -29 6 -52 -5 -16 -13 -27 -18 -24 -4 3 -11 -5
-14 -18 -7 -21 -7 -21 -16 -2 -7 16 -9 11 -9 -21 -1 -39 1 -41 24 -36 28 5 33
-9 10 -28 -8 -7 -15 -29 -15 -49 0 -47 -19 -80 -21 -36 l-1 30 -9 -32 c-5 -18
-11 -33 -12 -33 -1 0 -2 97 -2 215 0 118 3 207 7 197 4 -9 8 -35 9 -57z m1478
-152 c1 -83 -3 -154 -7 -157 -11 -6 -25 362 -15 378 13 20 22 -66 22 -221z
m29 7 c0 -97 -3 -155 -8 -140 -4 14 -8 99 -8 190 0 97 3 155 8 140 4 -14 8
-99 8 -190z m41 130 c6 -36 11 -87 11 -114 0 -46 -19 -181 -25 -174 -1 2 -6
86 -9 188 -5 124 -4 182 3 175 5 -5 15 -39 20 -75z m49 -70 c1 -36 -3 -83 -7
-105 -6 -29 -9 -2 -9 95 0 82 3 123 8 105 4 -16 8 -59 8 -95z m-1661 -82 c-2
-35 -3 -9 -3 57 0 66 1 94 3 63 2 -32 2 -86 0 -120z m1693 67 c0 -8 -4 -17
-10 -20 -6 -4 -10 5 -10 20 0 15 4 24 10 20 6 -3 10 -12 10 -20z m-1710 -27
c0 -19 -2 -20 -10 -8 -13 19 -13 30 0 30 6 0 10 -10 10 -22z m553 -28 c3 -11
0 -20 -6 -20 -6 0 -2 -7 9 -15 10 -8 14 -15 7 -15 -7 0 -2 -11 11 -25 12 -13
37 -47 54 -75 l32 -51 -28 3 c-15 2 -26 8 -25 13 1 6 -5 18 -14 27 -8 9 -12
22 -7 29 4 8 3 10 -4 5 -11 -6 -16 5 -13 26 0 3 -13 9 -29 13 -17 4 -30 13
-30 21 0 8 -5 14 -11 14 -5 0 -7 5 -4 10 4 6 1 17 -5 25 -16 20 -4 35 29 35
20 0 30 -6 34 -20z m-410 -20 c-3 -11 -12 -20 -19 -20 -16 0 -16 2 -8 24 9 24
33 20 27 -4z m132 -69 c-2 -4 1 -8 8 -9 71 -6 127 -16 127 -23 0 -5 9 -9 19
-9 28 0 65 -34 58 -53 -4 -11 -15 -15 -37 -12 -17 2 -28 0 -25 -6 4 -5 -16 -9
-44 -9 -41 0 -51 -3 -56 -21 -4 -11 -12 -18 -18 -16 -19 6 -19 25 0 30 14 4
13 5 -4 6 -13 0 -23 5 -23 10 0 5 -13 8 -30 6 -19 -3 -30 0 -30 8 0 7 -4 6
-10 -3 -8 -13 -10 -12 -10 3 0 9 -9 25 -19 34 -23 19 -18 35 7 26 9 -3 14 -3
10 2 -11 11 51 55 68 48 8 -3 12 -8 9 -12z m1159 -13 c-12 -6 -24 -23 -27 -38
-7 -33 -56 -93 -57 -70 -1 8 -3 23 -5 32 -2 10 1 20 5 23 5 3 7 12 3 20 -10
29 4 40 53 41 39 1 45 -1 28 -8z m-944 -18 c40 -22 51 -90 14 -90 -12 0 -12 4
-4 20 12 23 0 53 -28 69 -22 14 -6 14 18 1z m1028 -12 c13 -16 -13 -82 -28
-73 -8 5 -8 11 0 20 6 7 8 25 4 39 -7 28 6 35 24 14z m-46 -45 c-3 -16 -7 -22
-10 -15 -4 13 4 42 11 42 2 0 2 -12 -1 -27z m-1315 -48 c0 -8 -4 -12 -9 -9 -4
3 -8 9 -8 15 0 5 4 9 8 9 5 0 9 -7 9 -15z m39 -12 c-10 -10 -19 5 -10 18 6 11
8 11 12 0 2 -7 1 -15 -2 -18z m78 12 c-4 -8 -10 -12 -15 -9 -11 6 -2 24 11 24
5 0 7 -7 4 -15z m182 -10 c-1 -29 -26 -34 -26 -6 0 11 6 22 13 24 6 3 13 6 13
6 1 1 1 -10 0 -24z m-86 -5 c0 -21 -15 -27 -25 -10 -7 12 2 30 16 30 5 0 9 -9
9 -20z m43 -1 c-4 -13 -9 -17 -15 -11 -11 11 -3 32 12 32 4 0 6 -9 3 -21z m80
0 c-4 -15 -9 -17 -17 -9 -8 8 -7 13 4 20 8 5 16 10 17 10 0 0 -1 -9 -4 -21z
m54 -4 c-14 -29 -25 -32 -34 -9 -6 16 11 34 34 34 8 0 8 -6 0 -25z m57 -2
c-19 -21 -27 -24 -37 -14 -9 10 -8 15 7 27 11 8 28 14 37 14 15 0 14 -4 -7
-27z m101 17 c11 -5 14 -9 8 -9 -7 -1 -13 -10 -13 -21 0 -11 -7 -20 -15 -20
-18 0 -20 21 -2 39 10 11 8 11 -10 2 -13 -6 -23 -19 -23 -27 0 -9 -7 -14 -17
-12 -28 5 -26 26 4 42 32 17 40 18 68 6z m45 -25 c0 -16 -6 -25 -15 -25 -18 0
-20 21 -3 38 17 17 18 16 18 -13z m263 7 c10 -10 14 -22 10 -25 -12 -12 -20
-8 -31 18 -14 29 -2 33 21 7z m47 -26 c-12 -12 -15 -8 -25 24 -8 25 -8 25 14
6 14 -13 18 -23 11 -30z m200 14 c0 -5 -5 -12 -11 -15 -11 -8 -40 25 -33 37 6
10 44 -9 44 -22z m150 9 c0 -5 -4 -9 -10 -9 -5 0 -10 7 -10 16 0 8 5 12 10 9
6 -3 10 -10 10 -16z m65 11 c3 -5 2 -10 -4 -10 -5 0 -13 5 -16 10 -3 6 -2 10
4 10 5 0 13 -4 16 -10z m-687 -23 c2 -10 -3 -17 -12 -17 -10 0 -16 9 -16 21 0
24 23 21 28 -4z m190 0 c2 -10 -3 -17 -12 -17 -9 0 -17 8 -17 18 -1 16 -2 16
-6 0 -5 -21 -33 -24 -33 -4 0 28 63 31 68 3z m180 1 c2 -11 -3 -18 -13 -18 -9
0 -14 4 -10 9 3 5 1 12 -4 15 -5 3 -11 -1 -15 -9 -8 -22 -31 -18 -33 5 -1 16
4 19 35 17 26 -1 38 -7 40 -19z m40 -1 c5 -24 -15 -21 -21 4 -3 13 -1 19 6 16
7 -2 13 -11 15 -20z m90 -8 c-3 -8 -7 -3 -11 10 -4 17 -3 21 5 13 5 -5 8 -16
6 -23z m50 12 c3 -8 -1 -12 -9 -9 -7 2 -15 10 -17 17 -3 8 1 12 9 9 7 -2 15
-10 17 -17z m42 4 c0 -8 -4 -15 -9 -15 -5 0 -11 7 -15 15 -3 9 0 15 9 15 8 0
15 -7 15 -15z m60 5 c0 -5 -2 -10 -4 -10 -3 0 -8 5 -11 10 -3 6 -1 10 4 10 6
0 11 -4 11 -10z m-592 -18 c3 -9 -3 -13 -19 -10 -12 1 -24 9 -27 16 -3 9 3 13
19 10 12 -1 24 -9 27 -16z m52 3 c0 -8 -6 -15 -14 -15 -17 0 -28 14 -19 24 12
12 33 6 33 -9z m-370 -35 c0 -5 -5 -10 -11 -10 -5 0 -7 5 -4 10 3 6 8 10 11
10 2 0 4 -4 4 -10z m200 2 c0 -13 -12 -22 -22 -16 -10 6 -1 24 13 24 5 0 9 -4
9 -8z m50 -2 c0 -5 -9 -10 -21 -10 -11 0 -17 5 -14 10 3 6 13 10 21 10 8 0 14
-4 14 -10z m100 -6 c0 -9 -12 -13 -37 -12 -43 1 -56 6 -48 18 9 15 85 9 85 -6z
m79 6 c8 0 11 -3 7 -7 -10 -10 -76 -14 -76 -4 0 15 15 22 35 17 11 -3 26 -6
34 -6z m-392 -6 c-3 -3 -12 -4 -19 -1 -8 3 -5 6 6 6 11 1 17 -2 13 -5z m110 0
c-3 -3 -12 -4 -19 -1 -8 3 -5 6 6 6 11 1 17 -2 13 -5z m333 2 c0 -11 -19 -15
-25 -6 -3 5 1 10 9 10 9 0 16 -2 16 -4z m40 -6 c0 -5 -4 -10 -9 -10 -6 0 -13
5 -16 10 -3 6 1 10 9 10 9 0 16 -4 16 -10z m70 0 c0 -5 -2 -10 -4 -10 -3 0 -8
5 -11 10 -3 6 -1 10 4 10 6 0 11 -4 11 -10z m37 4 c-3 -3 -12 -4 -19 -1 -8 3
-5 6 6 6 11 1 17 -2 13 -5z m-841 -51 c-10 -10 -19 5 -10 18 6 11 8 11 12 0 2
-7 1 -15 -2 -18z m64 6 c0 -11 -4 -17 -10 -14 -5 3 -10 13 -10 21 0 8 5 14 10
14 6 0 10 -9 10 -21z m57 6 c8 -22 -6 -33 -17 -15 -13 20 -12 30 0 30 6 0 13
-7 17 -15z m63 -5 c0 -11 -4 -20 -10 -20 -5 0 -10 2 -10 4 0 2 -3 11 -6 20 -4
11 -1 16 10 16 9 0 16 -8 16 -20z m58 -3 c2 -10 -3 -17 -11 -17 -16 0 -30 24
-19 34 10 10 27 1 30 -17z m52 19 c0 -2 3 -11 6 -20 4 -12 0 -16 -15 -16 -14
0 -21 6 -21 20 0 11 7 20 15 20 8 0 15 -2 15 -4z m64 -13 c11 -26 -13 -42 -29
-19 -8 10 -12 23 -9 27 9 15 31 10 38 -8z m206 -9 c0 -8 -7 -14 -15 -14 -15 0
-21 21 -9 33 10 9 24 -2 24 -19z m44 20 c23 -9 20 -34 -3 -34 -22 0 -35 15
-26 30 7 12 8 12 29 4z m113 -10 c9 -23 -11 -38 -26 -20 -13 16 -7 36 10 36 5
0 12 -7 16 -16z m46 -4 c6 -22 -7 -35 -23 -25 -15 9 -12 45 4 45 7 0 16 -9 19
-20z m52 10 c4 -6 1 -18 -6 -26 -12 -14 -14 -14 -26 2 -7 10 -13 21 -13 26 0
12 38 10 45 -2z m53 -12 c-4 -27 -23 -34 -32 -13 -8 21 1 35 20 35 10 0 14 -8
12 -22z m52 2 c0 -11 -7 -20 -15 -20 -8 0 -15 9 -15 20 0 11 7 20 15 20 8 0
15 -9 15 -20z m136 -6 c-4 -9 -9 -15 -11 -12 -3 3 -3 13 1 22 4 9 9 15 11 12
3 -3 3 -13 -1 -22z m-638 -1 c-5 -26 -38 -29 -38 -4 0 15 6 21 21 21 14 0 19
-5 17 -17z m52 2 c0 -8 -9 -15 -20 -15 -11 0 -20 7 -20 15 0 8 9 15 20 15 11
0 20 -7 20 -15z m48 3 c-6 -18 -28 -21 -28 -4 0 9 7 16 16 16 9 0 14 -5 12
-12z m150 -5 c-2 -10 -10 -18 -18 -18 -8 0 -16 8 -18 18 -2 12 3 17 18 17 15
0 20 -5 18 -17z m330 5 c-6 -18 -28 -21 -28 -4 0 9 7 16 16 16 9 0 14 -5 12
-12z"/>
<path d="M10693 11985 c-21 -18 -24 -24 -12 -25 9 0 22 7 29 15 16 19 44 19
60 0 17 -21 24 -12 10 14 -15 28 -52 27 -87 -4z"/>
<path d="M10970 11990 c-29 -29 -25 -48 4 -21 20 19 28 21 44 12 32 -17 39
-12 13 9 -29 25 -36 25 -61 0z"/>
<path d="M10350 11830 c0 -13 24 -27 57 -34 32 -7 53 6 31 20 -18 11 -88 22
-88 14z"/>
<path d="M10963 11620 c-6 -17 -7 -30 -2 -30 9 0 24 48 17 55 -2 2 -9 -9 -15
-25z"/>
<path d="M10770 11615 c0 -8 4 -15 10 -15 5 0 7 7 4 15 -4 8 -8 15 -10 15 -2
0 -4 -7 -4 -15z"/>
<path d="M10311 10243 c0 -25 1 -26 9 -8 12 27 12 35 0 35 -5 0 -10 -12 -9
-27z"/>
<path d="M10622 10230 c0 -14 2 -19 5 -12 2 6 2 18 0 25 -3 6 -5 1 -5 -13z"/>
<path d="M10782 9957 c-44 -14 -118 -81 -143 -129 -44 -87 -31 -205 32 -281
99 -120 293 -122 394 -4 118 137 62 353 -106 412 -47 17 -128 18 -177 2z m104
-87 l-5 -75 12 80 c8 51 15 75 21 67 4 -7 14 -11 22 -8 8 3 14 1 14 -4 0 -6 3
-9 8 -8 25 5 84 -44 109 -90 12 -21 9 -24 -58 -54 -38 -17 -68 -33 -66 -35 2
-2 34 10 71 27 38 16 69 30 71 30 1 0 5 -11 7 -24 5 -23 1 -25 -81 -40 -79
-14 -49 -14 52 0 41 6 44 5 43 -17 -1 -13 -8 -27 -16 -31 -12 -5 -11 -7 4 -7
15 -1 16 -4 6 -16 -6 -8 -9 -18 -6 -23 3 -6 -1 -15 -9 -22 -8 -7 -15 -19 -15
-27 0 -9 -6 -13 -14 -10 -29 11 -135 100 -130 108 3 5 38 7 77 4 89 -6 77 1
-16 10 -50 5 -67 10 -64 20 3 7 1 17 -5 23 -7 7 0 24 24 54 40 49 73 98 66 98
-3 0 -26 -29 -53 -65 -26 -36 -52 -62 -58 -58 -6 4 -7 1 -2 -7 6 -9 4 -11 -6
-5 -15 10 -52 15 -44 7 3 -3 -4 -11 -14 -18 -16 -12 -28 -10 -81 12 -34 14
-64 23 -67 20 -3 -2 23 -14 56 -27 34 -12 61 -24 61 -26 0 -3 -35 -2 -77 1
-75 5 -76 5 -23 -5 30 -6 70 -8 88 -5 17 3 32 1 32 -5 0 -5 -8 -10 -17 -10
-16 -1 -16 -2 -2 -6 10 -2 20 -12 23 -21 3 -9 9 -24 12 -32 4 -8 0 -6 -8 4
-15 19 -17 18 -77 -28 -56 -43 -69 -56 -56 -56 2 0 30 21 60 46 62 50 79 53
42 8 -35 -43 -69 -94 -63 -94 3 0 24 25 47 55 23 31 44 53 47 51 2 -3 -3 -24
-13 -48 -9 -24 -21 -53 -26 -65 -7 -20 -11 -21 -31 -10 -36 19 -78 59 -78 74
0 8 -7 16 -15 19 -8 4 -15 17 -15 29 0 13 -4 26 -9 29 -17 11 3 132 27 159 8
9 11 17 6 17 -5 0 -1 5 9 11 10 6 21 19 25 30 7 17 15 10 60 -47 29 -36 52
-68 50 -69 -2 -2 -30 16 -62 41 -33 24 -61 44 -63 44 -12 0 5 -16 59 -55 84
-62 96 -46 29 39 -49 63 -61 83 -42 72 4 -3 16 3 24 12 10 11 28 17 47 16 16
-1 30 1 30 4 0 4 12 7 26 7 l25 0 -5 -75z m12 -132 c18 -18 14 -46 -7 -58 -25
-13 -48 -4 -56 21 -12 38 35 65 63 37z m93 -122 l67 -49 -26 -24 c-14 -12 -31
-23 -38 -23 -8 0 -14 -4 -14 -9 0 -12 -23 -20 -82 -27 l-49 -6 5 73 5 74 -10
-71 c-10 -68 -12 -71 -35 -66 -18 3 -23 9 -19 21 50 133 60 151 66 134 7 -17
8 -17 8 1 1 12 6 16 16 13 8 -4 17 -2 21 4 7 13 6 13 85 -45z"/>
<path d="M10781 9915 c0 -5 13 -37 29 -70 15 -33 28 -55 29 -50 0 6 -13 37
-29 70 -15 33 -28 56 -29 50z"/>
<path d="M10842 9900 c0 -14 3 -45 7 -70 6 -34 9 -37 9 -15 1 17 -3 48 -7 70
-6 25 -9 31 -9 15z"/>
<path d="M10921 9854 c-12 -31 -20 -58 -18 -61 2 -2 14 22 26 53 12 31 20 59
17 61 -2 2 -14 -21 -25 -53z"/>
<path d="M10995 9819 c-71 -58 -88 -78 -33 -39 42 29 98 81 87 80 -2 -1 -26
-19 -54 -41z"/>
<path d="M10680 9690 c-34 -7 -34 -7 -5 -8 17 -1 48 3 70 7 l40 9 -35 0 c-19
-1 -51 -4 -70 -8z"/>
<path d="M10931 9685 c9 -8 142 -56 146 -52 2 3 -28 16 -67 31 -70 26 -88 31
-79 21z"/>
<path d="M10715 9650 c-33 -15 -55 -28 -50 -29 6 0 37 13 70 29 33 15 56 28
50 29 -5 0 -37 -13 -70 -29z"/>
<path d="M10857 9733 c-15 -14 -7 -43 12 -43 23 0 34 23 18 39 -13 13 -21 14
-30 4z"/>
<path d="M10910 9656 c0 -2 23 -32 50 -66 63 -78 66 -69 4 11 -41 53 -54 67
-54 55z"/>
<path d="M10882 9615 c-1 -16 3 -48 7 -70 8 -35 9 -36 9 -10 1 17 -3 48 -7 70
-8 35 -9 36 -9 10z"/>
<path d="M10901 9635 c0 -5 11 -32 25 -60 13 -27 21 -39 18 -25 -7 29 -43 100
-43 85z"/>
<path d="M10197 9879 c7 -7 15 -10 18 -7 3 3 -2 9 -12 12 -14 6 -15 5 -6 -5z"/>
<path d="M10221 9850 c-1 -23 15 -45 23 -31 4 6 3 11 -3 11 -5 0 -12 8 -14 18
-3 12 -5 13 -6 2z"/>
<path d="M10247 9803 c-4 -3 -7 -11 -7 -17 0 -6 5 -5 12 2 6 6 9 14 7 17 -3 3
-9 2 -12 -2z"/>
<path d="M10256 9772 c-7 -12 3 -42 14 -42 5 0 11 -8 13 -17 4 -15 5 -15 5 2
2 26 -23 71 -32 57z"/>
<path d="M11252 9848 c-8 -8 -9 -15 -1 -25 18 -21 39 -15 39 12 0 27 -18 33
-38 13z"/>
<path d="M7062 9231 c-144 -165 -268 -314 -277 -330 -13 -26 -15 -90 -13 -493
l3 -463 26 -3 c20 -2 56 19 152 91 69 52 164 118 210 146 47 28 96 67 111 86
59 77 58 68 56 690 0 313 -3 571 -4 572 -2 2 -120 -132 -264 -296z"/>
<path d="M6274 6762 c-78 -43 -174 -113 -198 -144 -47 -62 -55 -102 -53 -272
2 -127 5 -159 17 -166 25 -16 55 -11 91 14 34 25 93 64 152 101 l32 21 3 232
c1 128 -1 232 -5 232 -5 0 -22 -8 -39 -18z"/>
<path d="M5780 6350 c-140 -105 -130 -85 -130 -276 0 -90 3 -164 6 -164 4 0
51 26 105 57 65 38 102 66 109 83 6 15 9 93 8 198 l-3 173 -95 -71z"/>
<path d="M5438 6020 c-73 -60 -109 -186 -75 -262 l12 -27 60 32 c33 18 65 43
72 57 8 15 13 66 13 128 0 99 -1 102 -23 102 -12 0 -39 -13 -59 -30z"/>
<path d="M5158 5740 c-35 -29 -38 -36 -38 -83 0 -72 9 -83 48 -63 17 9 36 25
42 35 13 26 12 79 -3 114 l-12 28 -37 -31z"/>
<path d="M18870 8631 c-15 -28 -35 -155 -27 -174 6 -15 29 -17 207 -17 110 0
200 2 200 4 0 10 -130 97 -225 150 -107 60 -138 67 -155 37z"/>
<path d="M11060 7010 c-14 -4 -49 -8 -79 -9 -84 -2 -90 -12 -84 -134 7 -138 9
-140 134 -135 134 4 139 9 139 140 0 92 -2 101 -25 123 -25 26 -42 29 -85 15z"/>
<path d="M9541 6993 c-13 -9 -16 -31 -16 -117 1 -137 3 -140 128 -144 148 -4
167 14 148 144 -20 138 -10 129 -136 129 -67 0 -114 -4 -124 -12z"/>
<path d="M12293 7002 c-37 -6 -45 -27 -44 -117 3 -142 15 -155 154 -155 59 0
89 4 105 16 23 15 23 19 16 122 -3 59 -11 112 -18 118 -10 11 -167 23 -213 16z"/>
<path d="M8176 6987 c-21 -15 -35 -78 -36 -159 0 -88 14 -98 140 -98 136 0
140 4 140 143 0 67 -4 107 -12 115 -17 17 -208 16 -232 -1z"/>
<path d="M8787 6993 c-4 -3 -7 -101 -7 -217 l0 -211 191 190 c105 105 199 202
210 218 l20 27 -204 0 c-112 0 -207 -3 -210 -7z"/>
<path d="M10192 6988 c-8 -8 -12 -67 -12 -200 0 -164 2 -189 16 -195 11 -4 74
52 222 201 l207 206 -211 0 c-150 0 -213 -3 -222 -12z"/>
<path d="M11610 6980 c-7 -12 -9 -89 -8 -212 l3 -192 205 197 c113 108 205
203 205 209 0 10 -47 14 -197 16 -188 2 -198 2 -208 -18z"/>
<path d="M13014 6987 c-2 -7 -3 -102 -2 -212 l3 -199 215 211 215 212 -213 1
c-164 0 -214 -3 -218 -13z"/>
<path d="M10345 6419 c-22 -4 -63 -8 -91 -8 -28 -1 -56 -7 -62 -13 -8 -10 -11
-192 -3 -230 6 -29 229 -30 253 0 7 8 14 55 16 111 4 83 2 99 -14 118 -24 27
-49 33 -99 22z"/>
<path d="M8813 6411 c-25 -11 -32 -39 -35 -148 -4 -110 3 -117 120 -121 146
-6 167 14 156 150 -10 114 -19 122 -131 125 -48 2 -98 -1 -110 -6z"/>
<path d="M9544 6406 c-17 -13 -19 -30 -22 -168 -2 -84 0 -174 5 -201 l8 -47
215 215 215 215 -201 0 c-157 0 -204 -3 -220 -14z"/>
<path d="M10918 6409 c-16 -9 -18 -30 -18 -215 l0 -206 205 198 c124 119 205
204 203 213 -3 14 -30 16 -188 18 -113 2 -192 -1 -202 -8z"/>
<path d="M11658 6413 c-45 -7 -53 -27 -52 -134 0 -64 5 -103 14 -114 10 -12
35 -15 120 -15 134 0 134 0 138 126 4 89 3 94 -22 119 -23 23 -32 25 -98 24
-40 -1 -85 -4 -100 -6z"/>
<path d="M13070 6413 c-52 -10 -60 -27 -60 -138 0 -70 4 -106 13 -113 6 -5 58
-13 114 -17 100 -7 102 -7 127 19 24 23 26 32 26 116 0 83 -2 93 -25 115 -21
22 -32 25 -97 24 -40 -1 -84 -4 -98 -6z"/>
<path d="M12247 6403 c-9 -16 0 -394 9 -403 6 -6 87 71 212 200 l204 210 -211
0 c-115 0 -212 -3 -214 -7z"/>
<path d="M11017 5851 c-107 -8 -117 -20 -117 -145 0 -111 8 -126 72 -133 59
-7 150 4 173 21 22 16 39 155 24 209 -9 34 -42 61 -67 55 -4 -1 -42 -4 -85 -7z"/>
<path d="M9564 5840 c-12 -5 -24 -13 -28 -18 -3 -5 -6 -55 -7 -112 -2 -97 -1
-104 20 -122 16 -12 39 -18 75 -17 70 0 145 14 159 28 6 6 15 46 19 89 8 85
-2 136 -32 152 -23 12 -177 12 -206 0z"/>
<path d="M10185 5828 c-3 -13 -4 -108 -3 -212 l3 -188 208 197 c114 108 207
203 207 211 0 12 -34 14 -205 14 -204 0 -205 0 -210 -22z"/>
<path d="M11601 5836 c-8 -9 -11 -68 -9 -189 l3 -175 213 189 213 189 -204 0
c-162 0 -207 -3 -216 -14z"/>
<path d="M10274 5253 c-57 -7 -69 -32 -69 -145 0 -129 2 -131 137 -126 130 5
132 7 136 142 4 99 3 104 -19 120 -23 16 -102 19 -185 9z"/>
<path d="M10935 5251 c-11 -2 -23 -8 -27 -15 -4 -6 -8 -107 -8 -224 l0 -212
203 206 c111 113 203 215 205 225 2 14 -3 20 -20 21 -39 4 -332 3 -353 -1z"/>
</g>
</svg>
